<mxfile host="app.diagrams.net" modified="2024-05-05T16:23:32.340Z" agent="Mozilla/5.0 (Macintosh; Intel Mac OS X 10_15_7) AppleWebKit/605.1.15 (KHTML, like Gecko) Version/17.4.1 Safari/605.1.15" etag="Y483fGoYwc_UFuqfb0zH" version="24.3.1" type="google">
  <diagram name="Page-1" id="3e8102d1-ef87-2e61-34e1-82d9a586fe2e">
    <mxGraphModel grid="1" page="1" gridSize="10" guides="1" tooltips="1" connect="1" arrows="1" fold="1" pageScale="1" pageWidth="1100" pageHeight="850" background="none" math="0" shadow="0">
      <root>
        <mxCell id="0" />
        <mxCell id="1" parent="0" />
        <mxCell id="70666756c84bb93c-1" value="" style="ellipse;whiteSpace=wrap;html=1;rounded=0;shadow=0;comic=0;strokeWidth=9;fontFamily=Verdana;fontSize=14;strokeColor=#0069D1;fillColor=default;gradientColor=none;gradientDirection=west;" vertex="1" parent="1">
          <mxGeometry x="280" y="110" width="500" height="500" as="geometry" />
        </mxCell>
        <mxCell id="70666756c84bb93c-2" value="&lt;font color=&quot;#ffffff&quot;&gt;.NET&lt;/font&gt;&lt;div&gt;&lt;font color=&quot;#ffffff&quot;&gt;Platform&lt;/font&gt;&lt;/div&gt;" style="ellipse;whiteSpace=wrap;html=1;rounded=0;shadow=0;comic=0;strokeWidth=1;fontFamily=Verdana;fontSize=22;strokeColor=none;fillColor=#0069D1;fontColor=#0069D1;fontStyle=1" vertex="1" parent="1">
          <mxGeometry x="400" y="230" width="260" height="260" as="geometry" />
        </mxCell>
        <mxCell id="uS814pUWj2JyzmSzrT4n-5" value="CLR" style="image;aspect=fixed;html=1;points=[];align=center;fontSize=14;image=img/lib/azure2/preview/RTOS.svg;labelBackgroundColor=none;fontColor=#0069D1;fontStyle=1" vertex="1" parent="1">
          <mxGeometry x="310" y="326" width="68" height="68" as="geometry" />
        </mxCell>
        <mxCell id="uS814pUWj2JyzmSzrT4n-8" value=".NET CLI" style="image;aspect=fixed;html=1;points=[];align=center;fontSize=14;image=img/lib/azure2/general/Powershell.svg;labelBackgroundColor=none;fontColor=#0069D1;fontStyle=1" vertex="1" parent="1">
          <mxGeometry x="594.75" y="167.25" width="62.5" height="50" as="geometry" />
        </mxCell>
        <mxCell id="uS814pUWj2JyzmSzrT4n-10" value=".NET SDK" style="image;aspect=fixed;html=1;points=[];align=center;fontSize=14;image=img/lib/azure2/general/Toolbox.svg;fontColor=#0069D1;fontStyle=1" vertex="1" parent="1">
          <mxGeometry x="400" y="483" width="64" height="56.00000000000001" as="geometry" />
        </mxCell>
        <mxCell id="uS814pUWj2JyzmSzrT4n-11" value="&lt;span style=&quot;font-size: 14px;&quot;&gt;&lt;font style=&quot;font-size: 14px;&quot;&gt;MSBuild&lt;/font&gt;&lt;/span&gt;" style="image;aspect=fixed;html=1;points=[];align=center;fontSize=14;image=img/lib/azure2/general/Troubleshoot.svg;labelBackgroundColor=none;fontColor=#0069D1;fontStyle=1" vertex="1" parent="1">
          <mxGeometry x="405.55" y="165" width="52.9" height="54.5" as="geometry" />
        </mxCell>
        <mxCell id="uS814pUWj2JyzmSzrT4n-12" value="Roslyn" style="image;aspect=fixed;html=1;points=[];align=center;fontSize=14;image=img/lib/azure2/compute/Function_Apps.svg;fontColor=#0069D1;fontStyle=1" vertex="1" parent="1">
          <mxGeometry x="589.25" y="479" width="68" height="60" as="geometry" />
        </mxCell>
        <mxCell id="uS814pUWj2JyzmSzrT4n-15" value="Visual Studio" style="shape=image;imageAspect=0;aspect=fixed;verticalLabelPosition=bottom;verticalAlign=top;image=data:image/png,iVBORw0KGgoAAAANSUhEUgAABAAAAAQACAYAAAB/HSuDAAAABGdBTUEAALGPC/xhBQAAACBjSFJNAAB6JgAAgIQAAPoAAACA6AAAdTAAAOpgAAA6mAAAF3CculE8AAAABmJLR0QA/wD/AP+gvaeTAACAAElEQVR42uzdd3xUdb7/8c/3lJlMekIRKWLvFdC1rCuRZlm7QRFFQBeVKq6FInJEAXsBLIBrr4kdpGNY27pKV9aCgPROZiZtMjPnfH9/7L33t7oWSsqU1/Ov+9irkrwmmTnfN5MTEQAAAAAAAAAAAAAAkPwUCQAAAIDEUOKs8ElNRqAypnN9tsr3ieS5rhuLKxWzDdP1xI1HPYloiVZVRHzlgyceVks1AAwAAAAAQAKa3G+hnZGddZAvI9Ah02+dYgWsPwQyfUf5fHaeUsYe/be0aB2tjW2qrYn/GKuNfVtTW7tQRb1Pq7auW9nn+aIItQEwAAAAAAAN5JVhawsMM9Y1OztwSWZWoHNGhq+JqPq/DI9F45srglVlNZHoB/FwxfyrHj9uK48GwAAAAAAAoM5oVXLHt8f6srJ65eRn9c4IZDRNhI+qtja+Lbiz4pXKisizvR46ZIWI0jxWAAMAAAAAgD1UMvK7Vj5f5pC8pjn9fT47K5E/VjfuVpbvrHitKlg76aqHDl7OowcwAAAAAAD4DY6jjWOiP3bPa5YzPis7cGAyfg7RSHTztq2hscqqmtrdOSbKowowAAAAAAD4H885azLyDfvWgibZI2yfHUiFz8nzvPjOreEp1aHK0Vc9fMQOHmWAAQAAAABIWzMGrfTXNAmMbLZf3nDDVFaqfp7hXVWzy3dWDur54CEredQBBgAAAAAgbWhHG++aG+9o0ixvjGH8x8Ffi9RGoxKJRCQWjUksHpN4LC6e5/3fP2KappiWKbZli8/vF7/fJ36fLymuxMPllfO3bgsN7PPwEd/yVQAwAAAAAAAp7Y0Ra7o13z//NdtvF2itpaKiUioqKqSyokqqq6vEdff8ZvqmaUp2dqZkZWVJTl6O5GRnJ3SDqlBk4bbN24dc88hRn/EVATAAAAAAACmlZOj6wtyW/rnZuZntgqGQ7Nq5S0KhsLiuV+d/lmlZUpCfJ02aFv57DEjQq/SaqtrlO7ZU3NTj/gMZAgAGAAAAACD5vTVqbb+C/XKf2L59u7Vjxy6JRWMN9mf7/D5p3ryZNGvWVEzTSMg+kero6m2bgzdfdf/B00VE8xUDMAAAAAAASeXlQStz81tlzw9Xhjvs2L7jJz/L39BM05TmzZtJi/2bi2maiTkERGLrd2zedfMV4w9+R4liCAAYAAAAAIAkOPwPW3Wyz6dnb922taA+3ua/t2zbkv1b7i/NmzdN2HbRqLttx8byEf/yt33OcZTHVxPAAAAAAAAkpFfu+P7WyprQAzU1kYS9Ps7KzpQDDzxAAoFAwnZ0Y15w86Zdo7611zztOEVxvrIABgAAAAAgIZQUazPUcsmz1dXVvXQS/Ci7MpS0atVSWrRontAfp+vqyu2bgmM9M/xId+eYKF9pAAMAAAAA0Gie612WUZud9WGktva0ZPvY8wry5OAD24ppmQn9cXqert2xJfjo9k1b77lhSodqvuoABgAAAACgQT14zewsO5D5pWg5Klk/h0AgQw47/FDx+eyE/1i1Fm/n1uCUddtr7hg88bAwX4EAAwAAAABQ75yeM3LzM7KWiWEcmOyfi89ny2GHH5LQ9wX46RIg3s6dla/t3LxpaN+J7bbz1QgwAAAAAAD1YvxVHxcEMvVKUapJqnxOtmXJ4UcemjwjgIhoER3cVlGybUvolusmHbmJr0yAAQAAAACoM48UfxaQXPcbw5C2qfa52bYlRx55uPgz/En3sYd2Vc3buSU0uNdjh3/DVynAAAAAAADsk5JibW7K/fifYqj2qfo5+vw+OfroI8SyrKT8+CvDkS/Kt1cO7XH/gZ/xFQswAAAAAAB7zHEcI2/D2bOVUp1T/XPNycmRI444REQl72V+dbhmybatoUFXP3jop3z1AgwAAAAAwG57uO9Hz5mm9E6Xz3e//VtIm9Ytk/7zqKmK/bBrR/iWK8a2ncZXMcAAAAAAAPymR/t+7ChTj063S/zDjzhMcnOzU+KzidTE1mzbuPOWHg8c8p4SpfmqBhgAAAAAgJ94qNeC/pbfeCIdP3fb9slxxx0thmmkzOcUrY1v3bYpPPxbf5sXHEd5fIUDDAAAAACAPNS77GLLNt9J5wb7tdhP2rRplXKfVzzuhbZvCo3S3/3jye6l3V2+2gEGAAAAAKSpB/p81M5nySJKKDnm2KMkEMhIyc/OjXsVWzeWjyvfvv3hG6Z0iPF4AwwAAAAASKfD/7WfHuLze9+K1hY1RPIL8uXQQw9O6c/Rc3Vt+Y6KSbW73FHdH21Tw6MOMAAAAAAgxT3Uo6ypmWWuUUqyqfH/HX30UZKZFUj5z9PzdGznltATsW2hUd2fPKaSRx5gAAAAAEAKcvotzMzzqr5XSrWixk8VFhbIwYcclD6fsBavfGfVa7s27hpy7RNH7eQrAGAAAAAAQKoc/otLfHm5LZYqQ46ixi9f8p9wwrFi++y0+qy1iC7fFn69sjoy9KpxB2/l6wBgAAAAAEAyH/4dbeSt/2S+MnRHavy6/VvuL61a7Z+2n394V9XsnVt3DLzm0WN+4KsB6cwgAQAAAJKTVrnrPyrl8P/7du3cldaff25hVreDjmq7csZ9W+e//Ne1R/MVgXTFOwAAAACQlB7u/dGjpi03U2L3pMvNAHdHdSiycOeOyiE97j/wM2qAAQAAAABI5MP/tWW3mj7zQUrsvnT/MYBfHAIqI99u3xLs3/OBQ8uoAQYAAAAAIME81GdBD8syXqXEnsnJzpEjjjqMEL+gtjq2asf28NArxradLiKaImAAAAAAABrZ/dd+2Mnvs+ZRYm8Y0q7d8WKY3AbsV4eASHTLji0Vt3Ufe8ArSimGADAAAAAAAI1y+L/6wyN8AetfihtZ77UjjzxcsnOyCfE74lF32/ZN5SNX+No+6zjKowgYAAAAAICGOvxfOaelLytjtSjxU2PvtT2gjTTfrxkhdpMb88K7dlSMzZeWjxQ5Kk4RMAAAAAAA9cjpOSM3L5C1WkQ1oca+adasmRx4YBtC7OkQ4OnKHRt3jXOtyoe7O8dEKQIGAAAAAKCuD/+9yzJyDetbZei21Nh3eXl5cvjhhxBiL3meju7aVvGEqeXOC5yW1RQBAwAAAABQB0qKtbkh56PPlaE6UKNuZGYG5JhjjiLEvtLi7dwRfmZH2L71ugeaVRAEyYIbqAAAACABz1dabcz96B0O/3UrFuXH2OuEEqNJs9x+RxwcCL53z6aXXhj+DT+egiT50gUAAAASzMN9/v43w1R9KVG3TNOQdu1OJEQ9qAxGZm/bFerX6/5D1lEDDAAAAADAbni0999Hi6UcStTDxb8ypEMHBoD6FCyvnB8O1Qy8avxB31IDDAAAAADAr3i4z99vMEz1NCXqz8kntyNCA6gIVX8e3BEZ1OOBAxZSAwwAAAAAwH94sPeCCyzLeJ8SDAApNQRUVC8Jbq8e2OP+Az+jBhgAAAAAkPYe7vX3kwyfWkwJBoBUVVMdW7lzZ/iWK+9tO50aYAAAAABAWrr3qvltszJ9K0W0TQ0GgFQXqYmt2bZp5y09HjjkPSVKUwQMAAAAAEgL43rNaxKwfWtESQ41GADSSTTqbi3fVjHsK7PVi46jPIqAAQAAAAApy+k3LTM3nvO9MoxW1GAASFfxuBfasaXizsvMlk8qhgAwAAAAACDVTO630K6KVy9VhhxNDQYAiLhxXbFre/jebZs2P3rDlA4xioABAAAAAEnPcRwj98eO85VldKQGAwB+ynN1bfnOikmrdv046pZHT6+hCBgAAAAAkLTXnw9f+9Erhi09SMEAgN8YAjwd27WtYlK4whjV66EWVRQBAwAAAACSyqN9P3pYlNxCicbT4RQGgKSixSvfWflqZEdsSPdH2+wiCBgAAAAAkPAevnbBYMMyHqcEAwD2bgrYtb3y1doqPbT7+P23kwMMAAAAAEhID/Qqu8K2zdcpwQCAfVcZjMwOBUODrxx/yPfUAAMAAAAAEufwf82HZ9k+awElGABQt0LllfPD22sGXvXwQd9SAwwAAAAAaFQP9/r4cMOnvxEtBjUYAFA/qioiXwa3VQy+8oGDPqcGGAAAAADQ4Mb2mLdfIOBbo5QEqMEAgPoXqYl+u2NT+cAeDxwynxpgAAAAAECDuL/vJzk+5a0SkWbUYABAAw8B1bEfyrdX3dx9XOsZIqIpAgYAAAAA1IsJ587wx1pkrzAMOYQaDABoPLGIu7l8R2jEpWPavKCUYggAAwAAAADqTkmxNjfkfPyZUnIKNRgAkBiiMXdbcGvojq/MNi86jvIokr64GQsAAADqiFbrsz9+i8M/kFh8ttm8eevC5zo2rSh/y9l4e5lTZlElPfEOAAAAANSJh68te8awzOsokdh4BwBcV1fu2Lxr7IGtD3i4ww0qRhEGAAAAAGD3D/+9F4wyTGMMJRgAkDw8V0eDOysmblm/6a4bpnSopggDAAAAAPCb7r96QR+f33iWEgwASNYlQHu7dlZOqY2bt3V3mlcShAEAAAAA+C8PXPP382yf+oASDABIjSGgfFfVq+WV8ZuvHd96J0EYAAAAAAAREXn46g9PMPzWUkowACD1VAYjs4Nbg3/p8cih66nBAAAAAIA0dn/Psta2z1ylDPFRgwEAqT0EhIKRwVeOb/09NRgAAAAAkGYeue6zQpHYj6JVDjWSz8kMANgLVeGafwZ3Vtxw5f0HL6MGAwAAAADS4fBf/FlA58S/UyJtqMEAgDQcAioji4LbKgZe+cBBn1ODAQAAAAApynHKrNwfzUViyPHUYABAequpia0Mbq8a2n1ca24CmkQMEgAAAOD3D/+Okb1WzebwD0BEJBCwD9v/gPzp8x4tX1UyYsP5Ipq/XGYAAAAAQCrIWVv0nKGMsykB4D/5A/bB+x+QP/3DCaHNb41a19txHM6YCYyVBgAAAL/pgWvLHrJM86+USA38CADqkxv3gju2BUd8bbSZ7DjKowgDAAAAAJLl8N9rwSDLMiZQggEA2BNeXFfs2BG+d8emzY/eMKVDjCIMAAAAAEjkw/81C4ot2yihBAMAsNdDgKdrgzsrJ+xyI3f1cQ6KUIQBAAAAAAnm/p5lp9p+8x+UYAAA6oLWOla+rWKCoeWuC5yW1RRhAAAAAEACeOCqOYdZft83ogyTGgwAQB0vAV75rqpXKypqB/e8r205QRgAAAAA0EgevGZ2c8MKrFFKMqnBAADU2w4gooM7K1+JVFbc0n38YdspwgAAAACABnT/hZ/k2E3dVSKqGTUYAICGUhmsnr2rsnZQz3vbrKQGAwAAAADqmVNc4svO2u8rw1CHU4MBAGisISAUig6+cnzr76nBAAAAAIB6UFxcYv4ha7+PDEOdTg0GAKCxVVVEvgxurxh85QMHfU6NumWQAAAAIJ1p9YfM5m9y+AeQKLJyMk5udXCzf8x5eNc3JcPXn0WRusM7AAAAANLYg70WPGFaRn9KpA/eAYBkE6mO/VC+o+rm7uNaf0ANBgAAAADshQeuLbvTNIx7KJFeTjmlPRGQlKJRd1P5tvDgy8a2fluJ0hRhAAAAAMBuuK9n2dW2z3iJEgwAQNINAfH4tp3bwnf8y2zzouMojyIMAAAAAPgVD1xddo5pGzMpwQAAJDPX9cLBHRX35Mn3jxU5RXGKMAAAAADgP9x39Ycn2La5lBIMAEDKDAGerty5PXjPjv1bP3rDDSpGEQYAAACAtPdIr89aaSO2WpT4qMEAAKQaz9XRYHnl47W74qO7P9qmhiIMAAAAAGnp0YvL8nW+uUYrnU8NBgAgtWmvfGfl08Ggur3XQy2q6MEAAAAAkDYeKf4sINmxb7XIAdQAAwDSagjYVfVqeWX5zdeOP2onPRgAAAAAUprTsczKPlB9qZQ6kRpgAEC6qgrXzAyHI3/pPrbNxnTuYPClAAAAkKKHf8cxstuaMzn8A0h3WbmBc/dvXbBh5n3bZr1y5/rDGAAAAACQUrJ/LHpWGbozJQDgf54X8zK7HdCq4PvZD+747PUR645Nt8+fHwEAAABIQQ/1WjBWmWoEJfBz/AgA8P9VVUUWBbdVDLzygYM+ZwAAAABA0nngmrIBpmVMogQYAIDdE6mp/a4qWDvk4jEtZzMAAAAAIDkO/1d/eJlpm29SAgwAwF4MAZHY6vLtVYO7j2v9AQMAAAAAEtb9V80/xfJb/6QEGACAfROLxrfu3FF5++VjWr2klNIMAAAAAEgY468uO9Rvq2+1KJMaYAAA6oYb84I7dgRHfG20mew4ymMAAAAAQKN6qEdZU5VhrBGRbGrg95zMAADsMc/1KoI7KsbkScvHihwVZwAAAABAg3vwmtlZyvKvUqL2owYYAIB6pnWkfEflhF1eZHQf56AIAwAAAAAahFNc4svJar5MlDqSGmAAABpyB9CxXdsrJlha7rrAaVnNAAAAAID6O/w72sha/fe/G6b6IzXAAAA02hLghUM1L8Zqq4Ze4hwUTPQP1+ARAwAASLorTpW1esGbHP4BoJEpZeTmZ/Zusl+zXdPu3fziq3/9rmlCf7g8YgAAAMnlwV5lEw3TGEgJ7A3eAQDUr+pwzcyaippBl9x7wCoGAAAAAOz94f+aspGGZdxLCTAAAImtMlw9M7Qzcn2PBw7YxAAAAACAPXJfzw+vsn3mK5QAAwCQPMLlVW9XR6N/6e602cUAAAAAgN91f88PO1k+cx4lwAAAJCVdvrNq8tqt4ZsHTzystrE+CG4CCAAAkODGFc872vKZcykBAElLFTTJuvGEI1vsKh21oVejfRA8DgAAAInr3l7zWwUMa7Uo8VEDdYF3AACNr6aiZuHWbe75vR5qsa0h/1zeAQAAAJCgnIvfyc9Q1lcc/gEgtQRyAh0OPCR7y9vOplsa8s/lHQAAAACJePjvXZaRI+o7UeoAaqAu8Q4AILFUhSNlW2oqzuvjHBSp7z+LdwAAAAAk2uG/Y5mVpdU/OPwDQOrLys0oOqhJk00lw9cezQAAAACQRrRoldVavW8Y6kRqAEB6MCyjYL82Tb5+++5Nf2EAAAAASBMPXrPgWcNW51ICANKLUqKaNs+d8t49WyfV259BZgAAgMTwwDVl4w3TGEYJ1KdTuAcAkPAqQjXzvqxt2s1xlFeX/13eAQAAAJAIh/9rF9zE4R8AICKSkxfofHrWzoVljrYYAAAAAFLIuB7zLjaUepISAID/lZGVcVI0e9fiyf0W2gwAAAAAKeD+q+af4vPb71ACAPBzgUz/cW0PO3BpXb0TgAEAAACgkYy/suxA02d9QgkAwK/JzMo4OpK183PH0ft8fmcAAAAAaATjes1rYvuNr0TEpgYA4LdkZWW07+Df+j4DAAAAQJJxisuy/Ya1QpRkUwMAsDty87LPf2/M5qcYAAAAAJLE5H4L7axM+VKL2o8aAIA9UdA058Y3R669lgEAAAAgwTmONkI1lfOVMo6kBgBgbzRvWfjsK7etP4wBAAAAIHGpzFULXjVMdSYpAAB7/2qijP1b5/3jkaHrAwwAAAAACejBq/8+wTCNKygBANhXlm00OapFxlwGAAAAgARz31VltypLBlICAFBXsnICZ5Teua4PAwAAAECCGH/VvJ6Wz3iQEgCAutZ8/4Ipr/71u6YMAAAAAI3s/u4Limyf/TIlAAD1QSllFbZoOp8BAAAAoDEP/1fMPcoMyHxKAADqU2aW//jSEWt7MQAAAAA0gnuL57cyM3xLRSlFDQBAfWveqvCpCYNW+n/vn7NIBQAAUHfuK56bZ2Vay0W0TzQ9AAD1TymV2bYw+yERGfRb/xzvAAAAAKgjTu+yDCtgLxXRhdQAADSk/P1yBpTctqYFAwAAAEB9H/47llmZcf2pKDmQGgCAhqZEVGZh4BkGAAAAgHqkRatAa+NdwzTaUQMA0Fhy87LPf2Hod60YAAAAAOrJgz0XPGua+nxKAAAaW2GTvIkMAAAAAPXg/p7z7zUs1ZsSAIBEkFeYfcmrQ1bvxwAAAABQh8b2mH+9aZkjKQEASCSBAt9oBgAAAIA6cl+P+Rf4feZUSgAAEk1hs9zryxxtMQAAAADsoweu+Kid5TPfpwQAIBEpZdjbIj8WMwAAAADsg/FXlh2oMvTnlAAAJLL8pvn3MAAAAADsJadHWVPLr5Yr0TY1AACJLJBpH/LyoJWtGQAAAAD29PB/wcLMTNtYpkRyqAEASAb+/EAvBgAAAIA90K/9ZDszr/IfhtItqQEASBb5hZkDGAAAAAB2k+M4xiFHHz7bMOV4agAAkonf72v52sBvWzIAAAAA/C6tAj90fN00VBEtAADJyMwNFDMAAAAA/I77ey54xDSlmBIAgGSVlR247H//b0UOAACA/zb+yg+HWj7jEUog1fzhDx2IAKQRLdot257tcxzl8Q4AAACAn7nvqrIrOfwDAFKBEmUeUr3mMBF+BAAAAOBnh//5fzIt9RolAACpwq/McxgAAAAA/sP9xR8eYVpmGSUAACk1AOT4zxIRsUgBAAAgMrbHvP0My1gi/AUJACDFZGdlnC7CTQABAADk/gs/yTHz46u1SFNqINVxE0AgPbnbv7RZuAEAQFqbMGilXxXEl3L4BwCksjWhVgcwAAAAgLRVUqzNSHD9p0rLwdQAAKQyn2UdygAAAADSkhat1mQseFcpoz01AACpzrLMgxgAAABAWnrw6r8/YSj1Z0oAANKBzzYOYQAAAABp54Gryu5UhtxECQBAuvBn+LkHAAAASC/jrpz/F2WpeygBAEgnPr/digEAAACkz+G/+5zzbJ85hRIAgHRjmka2RQYAAJAO7rviwxNMv/EBJQAAaTkAWEYm7wAAAAApzymee4DpN7+gBAAgXWmRXN4BAAAAUtr48z8usALuchHtowYAIF0pJfkMAAAAIGU5F0zLNPJiX4s28qgB/JsmAZCuE0AGAwAAAEjNw3/HMiuQJ58ZSrWkBgAAItwDAAAApN7h33GMjFYy11DqBGoAAMAAAAAAUpMKfP+nF01DdSQFAAAMAAAAIEWN6zF/nGEaPSkBAMBPcQ8AAACQMu67qmyIaaphlAAAgAEAAACkqPt7ll1uGOoxSgAA8Mv4EQAAAJD07r2i7FTDUKWUAADg1/EOAAAAkNTGF5cdavnUJ5QAAOC38Q4AAACQtJxLZjc3MtQyETGpAQDAb+MdAAAAICndf+F7OSrL/5USyaQGAAAMAAAAIAUNOneGX3IyFyklzakBAAADAAAASEHFxSVma1/GfMOQw6gBAMDu4x4AAAAgaWjRqr3d7B3DMM6gBgAAe4Yb5gAAgKSR0eOsJyzLuJoSwN5r1bolEYA0xY8AAACApHB/j/kjDcvoTwkAABgAAABAihp7+Ye9lKXu1aKJAewrvo0ABgAAAICEPPx3/7Cb7VcvUAIAgH3DTQABAEDCGnPZh8fYfjWTEgAA7DveAQAAABLSvVfObuPzmYtFe4oaAAAwAAAAgBTkXFyWb1tqmWjPRw0AAOoGPwIAAAASytDizwKBbL1MKV1ADQAA6g7vAAAAAAnD6VhmBfzRT5VSB1ADAIC6xTsAAABAQtCiVaCVTFNKn0QNAADqnkkCAACQAFRGj44vGqZcSgqgfrVu3YoIQJriHQAAAKDRjb1i/j2mJVdTAgCA+sM9AAAAQKMad+W8wZZtjKQEAAAMAAAAIEWNv3L+JaZtPE4JAADqHz8CAAAAGsWYy2b/wbSNtykBAEDD4B0AAACgwY2/uOxAIyCfUAIAAAYAAACQosYVf9RM+eMrlFJchwAAwAAAAABS0a3XzM4yvfhypVQmNQAAYAAAAAApyCle4Qu42xeLoVtoTQ8AABoaNwEEAAD1f/h3tBHwbZsnhj6cGgAAMAAAAICUpFXg+7JSUXImLQAAYAAAAAApavyVCyaIoS6lBAAADAAAACBFjbty/q2GJQMpAQAAAwAAAEhR9xbPv8a0jAcpAQBAYuC3AAAAgDo3vvu8zobPeJESAAAwAAAAgBR1zxVzjzJscw4lAABILPwIAAAAqDP3XjS7jc+2l4qIogYAAImFdwCkCK21EhFTRKx//SOcuePbyqy4XxmVGyIZ/mzP9Xw60jqzWVXglLzqQw+VmFLKoxoAoC45F5fl21myTET7qAEAQOJhnU/Ow74hmyXjtSnL2oWD1ZeJVn9SntVGiZlnGpYt6tcfV6VFu9qNanErRPQKbepp2XlZ80855ehvDjtP1VIXALBXh//eZRn+mHxrKGlLDSCxnXrqyUQAGACQ4Id+3wdPf3P4+u/K/ypx6zzL9Dc1lFF3P8KhRXsqtkE872/ZzQuevXLkIRuUUpryAIDfPfx3LLMCLdUXYuiTqAEwAABgAMDeHfrVx2+vbfH1RxvuM1z/pbblz26oP9vT8ZDnevcVtJanug/rEOLRAAD84uFfHMN/1ZkzDcPoSg2AAQAAAwD2/OBvPTfss/Mjlephn5l1sDKUasQPRmJu/MOcfOPGnveetJJHBwDwn9cR43t8+Lxhql6kABgAADAAYA988t63OV+X7bpLx+wbfXbD/W3/7oq7sa8DOVaPXuNO+JpHCwAw/sp5YwzLHEUJgAEAAAMAdoPW2nh53Ocnhje5T9pm1smmYSb8r2aMxaOzVZZcccP9/GgAAKSrcVfMu8G0zacpATAAAGAAwO9Ys2ZNxgePrB9kuL7hfitQICrJHgotujZWO+impzo8qYSbBQJAOrmneM6FPp/9HiWA5PQHBgCAAQAN49l7v2hTuSEy0W9l/dkybTPZPx/PjX/j04Ezr33iqJ08ugCQ+sZcOu9kf8D8ghIAAwAABgD8Aq21+cSQTy6UuPmw38w8yDCMVPsE3doa95z+U9vN49EGgNR1T/Hsg3w+3/ciYlEDYAAAwACA/zDrmfWFKxevGWsbgb626fel+ucbrakde9OUk0eJCD8SAAApZlzxjGamnbFGlMqiBsAAAIABACKitVZPDSlrF49aTwbs3JMNw0irxrFYfP6W5qFzHKcozlcDAKSGW7vOzmrS1F5pKLU/NQAGAAAMAGmv7Lk1Gcs/XzfQNv13+uzMvHQOG4u7q1wdPHHAk0WVfGUAQHKb3H6yvevwwxYbhjqWGgADAAAGgLT23LB/HFgRjD/os7IutU3LoMi/adcNVUdqjx38zKkbqAEAyclxtOH7bsEC05AzqQEwAABIftzEZy+UlGhz47yPL7BN+zG3OrNtlp8d5eeUaeZlZmWuebzPZ2cNee70zygCAMn3VJ7x3YevKMPg8A8AQKq8uJNgDw7+9y3M27y6ZkSGL/Nmy7R9FNk9kYpIvwHPnjKVEgCQPMZeMX+CZRmDKAGkHt4BADAA4FdordWTQz46TUftCX47s33K/Qq/BlJTFZkw8JlThlACABLfvVd8eIttqYcpATAAAGAASAszJqz0/2vZhhszfVnj/L6MTIrsu0gk8vH2/avO5jcEAEACH/4vn9fT9psvUwJgAADAAJDyHr3p44NNVx4O+LMvMgyTPnUsFouvCUXWn3DHsxdVUAMAEsvYS+cVWQHzQ0oADAAAGABSVkmJNtfOnl+caWc/4vdn7k+U+uW6bji8q/r4W189Yy01ACAx3HPJ3KPsgPm1UoqfdQMYAAAwAKSeCYM+ahar8oZlBXJuti2bC54GpLW4u8qDnW5/6U9/pwYANK6xF87bz8w2flRKZVADYAAAwACQSkdPNa7nzNOzsvImZQWyT1S8CaJRlZeHbr71xTMfpwQANI47iufmFdrWKlHShBoAAwAABoCU4PQuywi47oDcnNwxPpub+iWScCg8eejzf7xJRDQ1AKDhTDh3hr8yP2OFaahDqAEwAABgAEh6D/WZd7Rl+B7OzMw5x1Amj3iCqqmOzN35Q9V5zgJ+QwAANASnY5nla+F9YRjqJGoA6eXU004hAsAAkDpKikvMNXbBRdnZORP8GZmteJiTg+fGF2/aFjrLKS2qpAYA1B8tWt13Zdk0Zcj51AAYAAAwACSl+/vOaWm5gTHZuTl9TGVwU79kvCj19EZTuSf1ndhuOzUAoH6Mu+LDZwxTrqMEwAAAgAEguQ6MotX4q+f/MSsj6/GszCzexpgaX5Ux7elOf5l4wsfEAIA6P/zfbZhyFyUABgAADABJ48FrZme5rnVTfn6eY1m+LB7KFKRl0PUTj59ECACoo8P/5fP7GD71LCUABgAADABJYfxV8w72+XwP5+XmXSz8Cr90GAGez93y7fXdS7u7xACAvXfP5fP+bPuMaZQAwAAAMAAktJJiba405hfnF+Q97Pf5W/Kwpd0IsKzWNf844MljuDkgAOwF57I5HTL81peUAMAAADAAJO4FyyWzm2dl+obn5xcMUKZh83Cl8ReqUmE37p7c74kTv6cGAOy++4rnHqBs8wctwusoAAYAgAEg0Wh1b/G8M3Jysx7Kysr+Aw8R/uOr1dNaLv3LhOPfIwYA/D6n26xCfxPfj0okhxoAGAAAJMwAcGvX2VnNmvj75xXkjLIsmwsV/AY9/roJx49UojQtAOBXDv8XTMv0Z2etVEr40TkADAAAEmMAcIpnHJ2bmTs6Ny+3Ow8Hdv8LV0+PR2KX3jClQ4waAPCz19aOZZZ/f2+xUuo4agBgAADQqAOA07HMspu6l+c3yR3v92ccyMOAvbTajUT/cMOUDjtIAQD/8xrraMP/bdl8ZUhHagBgAADwn6yG/MOGnzujWV5BxvDCwoKBhsFN/bDPDjYzfBv+dvPyouseO/4f5AAAUb5vy17m8A8AAH7xQqEh/pAxl8w5q6BJ7iOBzMx2JEd9iHte3xsnnfgcJQCks3FXzH/UMNXNlADwW3gHAMAAUA+0GnP5nCuaNm36sM9ncwMi1Dst+umNhccPcBzlUQNA2h3+iz+8xbDlYUoAYAAA0KADgHPpB39q1rz5y36fvw2J0bAjgPelF4l3vGFKh2pqAEifw/+8yw3bKKUEAAYAAA02AAw7f3pBi+YF72fn5PyRtGi0L2ot2+O10Q43TOmwjhoAUt29F80+3cq0P6UEAAYAAL/HqKv/0Pgr5g885ODW2zn8o7FpJc2MgG/NlEHLO1MDQCq7p/jDI6xM+2NKAACA3bHP7wAYdO4M/6Et8mZm5eQUkROJ9wWunOsmHDtGRGlqAEglIy6ct19OlrFGiQSoAWBP8A4AgAFgr9x52ZzD2uzX9AvTsvJJiUSlPXnn0KY7uxc5RXFqAEgFzrkzcjPyA6tEdFNqAGAAALC79vpHAO65fGbHti33+xeHfyQ6Zcglq3YVfjdpwD+bUANAsht07gy/Py9jEYd/AADQIAPA2O7zBrRo2apMKWWREEkyAxycYWSsnTxw4XG0AJCsSoq1uX9uxidKyaHUAAAA9T4AjL/yw6H7tWg+SdEOSbcBqCzT8C2fOnDxdcQAkGy0aLVSffiOYUgHagAAgL1h7tHhv+f8G5s1azaRbEjuHcC48IJTbtyv/XktZi5YsICbAwJICr4rzpxsmsZVlACwr1q3aUUEIE3t9jsA7u0++4JmTZo9RTKkxgigbmq985K/P+esyaAGgEQ39vL5o03D6EcJAABQ7wPAuCvmHd58vxbvkQsptgL8Mb4jvHbqoGWtiQEgYQ//l33Y17SVQwkAAFDvA8AjxZ8FCgsKvzCU4sf+kXobgKGaKyU/Pjvk627UAJBwh/+L559r+uRvlAAAAA0yAFg58pHls/JIhRSeAUxPe7OeGbj8dloASBTOpbPamQH1ASUAAECDDADje5T9NTM7m7sNI12+G+5/ZuCyNx2njF9vCaBxD/8XzD0gI8P3uYjw7jsAAFD/A4BT/EGLpk0LHyQR0us7Ql3WckfBiud6L8knBoBGOfwXzyr0ZRtfiRabGgAAoEEGgMLcwlmKn/tHOn5TGMbh8Rxz/bODVhxNDQANevi/YFqmz7SXG6JyqQEAABpkALi3eM4lmVlZJ+zNf9DTWmqjNVJRGZRgeLsEwzskXFku4cpdUhOpEs91qY6Ep5Rke8pdMXXIV1dTA0CDHP47llm+zMx/GErxC7oBAED9nHP+6wLEcYzmW84vt23fbv3tg/a0VNVUSEV1UKpqKiQWj4ro3/53LNOSQEaWZGfmSXZWrlgm73JE4tKiH/nLhBNuVUppagCol8O/4xj2N2fOMwxVRA0A9e3U004hAsAA8G/jr5zXr2mzZpN/71+sra2RncGtUlEdEs/z9ukjyPRnS2F+c8nJzON2R0jUb5W/WxU7z+nzfFGEFgDq+glm3OXzXlK20ZMUABgAADTYAOA4jtFi2wUh07Syf+1fiESqZEdwi1RWhaWu/zrU5wtIs4LmkptVyBCARPx22WzoeIfrJrXbRAsAdeXey+fcb9oWv4YUAAMAgHr3k3sA+L8/87JfO/xrT8u2nZtkzabvpaIeDv8iItFojWzculZ+3Pi9xGK1PDpIMHp/T5lrp9607ExaAKgL91w2bwiHfwAA0CgDQHZW9v2/9A9Faqtk9YZvZGdwq0gD/BR0TW2VrN7wrZSHdvIIIdFYYslHzwz8eigpAOyLey+bdZnlMx6jBAAAaCj/90b78cWzDm3aYv+VP/8HwpXlsmnrj9JYdz8ryGsmLZq05kcCkHg89UretuOu7V6q+NUWAPbImEs/PMP2yyeUANAY+BEAIH393zsAbH/Gf/2NZnlou2zc1niH///9GDZsXS2a+68j4b57dM9Qi6+WTOj5Ob+vG8Buu/PCmUfYfvmIEgAAoLEGAJWVm93nP/8fu4JbZcuODSIJcPCuqArJhi2rhBUAiUcfl1mYsf5vNy07ghYAfo9zyezmWZn+JfKzH8EDAABosAHgniumH2mZduB//8eq6rBs25VYNzqvrA7Lpm1rE2KQAH4yAYjK9Sz5dsqApd2pAeDX3H/hJzl+n+9rURKgBgAAaLQBwG9lFP/v/xCPRWXjtrUJ+Zftocpy2bpzPY8aEpIy1BtT+i95UGvNHSsA/MSgc2f444HIIjF0M2oAAIBGHQAyAzlXiYiIFtmwZbW4bjxhP+BdoR2yK7iVRw6JOQKYxq3PDFo+b8KglX5qABARKS4uMVtk+z80DOMwagAAgEYdABxHG/4M/xEiIuXhnVITrUn4D3rbzk0SrOBXBCJRVwA5O1PVfP/UjcuaEwNIb1q0OlE1eduw1OnUAAAAjT4AZK2a01aUEtdzZXuC/dz/r19QiWzZtk4qq8I8gkjMr1GtDzAt2TD1pmVnUgNIX/dePn+iYaoLKQEAABJiAIhG5Q8iIjvLt4jrxZPmA9cisnHbGonUVvMoIiEpJbZY8tGUgV8NogaQfsZcNneYZRsDKAEAABJmALBt36laiwTDu5Lug/c8T9ZtWiWxaC2PJBJ4CPAmTBm47IWS4hKTGkB6uPeyedfaPnM8JQAAQEINAJZpH1NRtSup/vb/P7leXNZuWinxeIxHEwk8AkivcIujFv2t7yc51ABS292Xze1m+oznKQEAABKNZfvtI7bs2Cw6EX/v326KxqOybtMPcmCrI8QwDB5VJCQt3gk6M3v9M/1XdLj+yWN+oAiQesZcNusY2zZmShK/pgJIi4sSAGnKMAxpUVNTlfSfSCRaI+s2/yBaezyqSGAqTxvx76cMWPpnWgCp5d6LZrexfb7FIqKoAQAAEnIAqI3Wap0iM2B1pFI2bF0jmlkTCb4CKKWmPTNg6X1aNAcFIAU4F7+Tr/zWctHaRw0AAJCwA0B1pCql3jNfURWSLdvX88gi4Wml7vjb4GWzS5wVHBiAJDa0uCRg+3OWGobkUwMAACT0ABCtjaTcncnLwztke/lmHl0k/gjgqS6hHfFvJ/db2JQaQPJxOpZZzYwm/zCUaksNAACQ8ANAzI2l5FuQt+/aLLtC23mEkQwOMvy+jVNvWnYmKYAkOvyLY1jN3BlKyQnUAAAASTEAuG7q/vq8LTs3SLgqyKOMxKe1T0z56Jkhy/oTA0gKyrzsjy+YpupCCgAAkDwDgOem8qFKNm79UapqKnmkkRxfsq48MXXgsmccR/P7LIEEds9lc++xbHU1JQAAQFINAF4qDwAiorUn67eskkhtDY82ksV1LXcsX/RE/xXZpAASj3PJnBst2xhJCQAAkHQDQDp8kp7nyrrNP0g0FuURR1JQIif6THftszctP5gaQOK457J5F/v95lOUAAAADAAJLO7GZN3mlRJP4XseIMVoXRi39MqnByy/iBhA43MumHuqZat3KAEAABgAkkA0VivrNq8WT3s88kgKSothKv3ulEHL79aiFUWARjr8nz/vYF+m8QklAAAAA0ASidRWyfrNq8TTmkcfSTQE6LueGbR8RomzwkcNoGGNO3dGM1+WLFdKTGoAAAAGgCRTVVMhm7b9KMIIgGSi5Zzw9vg3kwZ804QYQMO4tevsLC/Hv1wZKosaAACAASBJhSvLZcvODXwFILk2ACUH+1V049Sblp1KDaB+OcUrfIX51mLTkBbUAAAADABJbldou+wIbuWrAMnGL6b8Y+rAZdeRAqgfxcUlpq22fKgMOZwaAFKJVkZvKgDpy5I0fxf8th0bxTIsyc/lXdVIOs9MHbDs1I3Njr/BcRR3tgTq8PL4RP3h68qQM/hJMQApQ6kay7L+ePvLf1pcdmrF8wQB0pNBApFN29ZKRVWYEEjCF3O5vvWOrz6b3G9hJjGAujHmsnkTlCmXUwJACvleGXar21/+02JSAAwAEJENW1dLdaSSEEg6WvQfDL9v/XM3LzmQGsC+ueeS+XdYljGQEgBShTJkRpO8vGOHv3pmOTUAMAD87yHK82T95tVSG40QA0n4BawLY66xavJNS84nBrB3xlw252rTJ/dRAkDKHP6V4Qx/7ew/3zClQ4waABgAfsZ147J240qJxaLEQPK9yGsxDNOY/syg5XeJaEURYPc5l83rbFnmS5QAkBq0J5ZxwfDXi+4WUdzNBAADwK+JuzFZt/kHibsuMZCcL/la3z1lwPJ3JvdbaFMD+H13XjL3KJ+lZlMCQEpQstP22YeOeKVoOjEAMADshtpoRNZv/kG05sbqSNLXfiUXGT7fv54ZuqKQGsCvG3vprP0zfeZiXg8BpMjr/5e2HW9720tnraEGAAaAPVATqZINW9aIFt41hWSlD9VRd/3fBn19Ai2A/3ZH8dw8sa2vRXQGNQCkwPF/cu2RZ59620vdqmgBgAFgL1RUhWTztvWEQBJfC+hMT7tLpwxY2pcYwP/ndCzLyBG1TIniXTIAkv+CXuuBI944+0bHUbx9FQADwL4IhnfI9p2bCYHk3gGU+tvkQcsnOY7D9zw4/Hcss6ym7meGodpSA0CSv8LXmMo9eVhJ5ydoAYABoI5sL98sO0PbCIHk/mbXekCrHZd8OrnfwkxqIF1p0cps5r1nmOokagBI7rO/rLV9/gPveL3rQmIAYACoY1t3bJBwZTkhkOxOVba9ZuqgZa1JgXQ09vL5U0xDzqMEgKQ++2s1K+ruPPy2l87gb6gAMADUCy2yYeuPUlVTQQsk90WDkuaep3/826CvulID6eSeS+eNMUx1PSUAJPfruL5neEnReU5p9yg1ADAA1OsIoGXd5lVSU1tDCyT3N75Spqe92VMHfHUbNZAOxlw2r59pq1GUAJC0B38RrUyz+/DXO98lovg1VQAYABpkA/A8Wb/5B4nGaomBFLia8B6YMmD522WOtoiBVHX3RfMvsCw1mRIAkvf1WpXHRQ4b/mrHUmIAYABoYPF4TNZu+kHi8TgxkALXFPqSlduXf/XczUvyqYFU4/x51il2hrxPCQDJSotaaNuxNqPe6LSKGgD2laU17yDaG9FoRNZtXiltWx4uhmESBMnuyHjM3PjcwOWn9pl0/FfkQCq454LZBxkB61Ne5gAkK6X0K4d5O6/t/lJ3ty7/uzwvAumLdwDsg5pItazfvEq09oiBpKdFZ8a0Xj61/7Je1ECyc7rNKjQC1jIR4cdbACTnRbqSQSPe6Hx199K6PfwDYADAPqiqqZBN29YypSJ1hgAlL0wZuHyC4zg8PyAp3dp1dpaZa60QkRxqAEjCV+K4MvSfhr/RaRItADAAJKBQxS7ZumsjIZBC1x560P7bLil7rndZBjGQTCb3W2jn55pfGEq1oAaApLswV3q9mNmtR7ze+WNqAGAASGA7y7fKzuAWQiBlKCV/imUWrJ5888L9qYFk4Dja2LYzOE8Z6mhqAEi6111Dz6319j905GunbqUGAAaAJLBtx0YJVuwkBFJpBdhfYtb6qTcuO5sYSGxamV/Ne80w1Z9oASD5Xm+9scNf79TNKT0mSgwADADJcvkpIpu3rpXK6jAxkDrXJKJMbcr8qf2X/pUaSFT3Xjb/McM0ulMCQHK9xoo2TLlq5Btd7lSiuKEUAAaA5BsBtGzYslqqI1XEQGp9bSv10NRBy151OpZxV3UklHsumTtUmWowJQAk2ek/qHzG4cNf6/QaMQAwACQxz3Nl/eYfJBqNEAOpNQJ40mP/YwqWTe63MI8aSATORXOvMmzjEUoASK6zv/qX6XkHDn+56AdqAGAASAGuG5e1m1ZKLM6PciHlLlqOVj5r3eR+C4+kBhrTqPNnnWn7jVcoASC5XkfltUN10fHDSruEqAGAASCFxOJRWbdppbhunBhILVrlKtv+19RBy3oQA43BuWD2kRlZ9gJKAEgmppLBI0o6XdW9VLnUAMAAkIJqoxHZsGW1aO0RA6lGaU9enXzTkge0aEUONJQR3WbtbwfsxbyGAUgeOu4p6TbsjU4TaQGAASDFVdVUyIYta0Rzb1ek4gpgGLc9M2DZ7AmDZvipgfp2R+e5eVl51tciOkANAEnxOimyydZmm1FvdJpDDQAMAGmioiooW3asJQRSkhbVJcNrueq5/itaUAP1xen4XEZOvloiogqpASApDv9Kzc/er/bg20uLtlADAANAmikP7ZDt5ZsJgVS9zGkVVbH1U29cdjYtUNdKiktMs7DN35WhDqIGgKR4VRQ9IXrUR10HTzyvlhoAGADS1Padm6Q8tI0QSNGLHWVpU+ZPHrR0IDVQV7Ro9a0ueM+w1CnUAJD4r4WiDZGrRpR0HuI4DjeBApBQLH4uveFt3r5eTNOW3Kx8YiA1L35cmTh5wLLTCrYd34s7HWNf3XvZvMmmUudzIxUACf/6Z6gqLcapI94o+poaABIR7wBoBFqLbNy6RqojlcRA6l4EaX1VefNli/7W95McamBvjblk3t2Gof5CCQBJcPj/NhoItx7J4R8AAwB+zvO0rNu0Smqi1cRACo8AcoIbyF43edBXh1ADe3z4v3TO9aYld1ECQOIf/o03oluN45znLwlSAwADAH6R67myfvMqicaixEDq0pKvXG/l1P7LLicGdpdz0ZzzTNOYSgkAic4T4/YRb5x9pbOgKE4NAAwA+E2xWEzWblopcZfXDKT0CqC06NIpA5beo0UreuA3D//nzTnR9hnTKQEgoSlxPUN1G1V69oPEAMAAgN0WjdXKus0/iKe5USxSfQeQO6f0XzqrxFnhIwZ+8fB/wdwD7GzjCxFhKAKQyDbHDO+AUW90mkMKAAwA2GM1kWrZsHmNcI9rpDolqmv59tgPU6//fD9q4CeH/26zCk2/fCVabGoASFRayeexSM2hzutdN1EDAAMA9lpFdUg2bv2REQCpPwJoaaP9gXVTb1p0KjUgIuJcMC3TzDG/MpTKpQaAhH39UsYT8aM/OcOZdgF3cQaQlCwSJJZQxS6xLZ/s16QlMZDatPZpZf5jysBlA/pNOuFJgqSvfu0n26Yv8IWhhCc+AAn8umVcO6L07BcJASCZ8Q6ABLSjfIvsDG4jBNKDp594+qYlzzqO5vkoDTmONtocdPBcw5BjqAEgISmptv2q/cg3OfwDYABAPdm6Y4MEK3YSAunxRKRUn5bbv/r8wVuXZVEjnWhlLp//iqHUWbQAkKCH/+8yM81Wt7/caTExADAAoP4ui0Vk09Z1UlkdJgbS5IveOzmvRq178qYvDyZGerj7knn3G6ZcSQkACerd2NHmsUOfLwqSAgADABpgBNCyfstqqY5wnxmkzQhQaCnfD5NvWnIxMVL88H/xnCGWpW6jBIBEpJQaNbK006WOUxSnBgAGADQYz/Nk3eYfJBqtJQbSZQVQSql3Jvdf4ohofhd8Kh7+L5p3hWUbj1ECQMK9AomKe4bqNqKk070iil/MBIABAA3PdePy4+aVEnNjxEDaUKJGT+m//IMSZ4WPGqljzIVzzrB88jolACTg6X+naRqHjXqj0xxiAGAAQKOKxaKybuMP4noeMZBOV2PnhrbFvpk04J9NaJH87rzwwyMMv/ERJQAkGiXqn7Ha/AOGv170IzUApDJLC+9uShY10WpZt/kHadvyMFHCO6ORJhOAyMG2ylg/dfDyM/8y4fhFFElOznkftLD8eomIGLzqAEiww/9T0WPOHug4Kn3+loUnYiBt8Q6AJFNVUyEbtqzmeRvpxdMBL+YtnDpg2U3ESD63X/hejpXpXyaiA9QAkFgXwqr/yNJO/dPq8A+AAQDJJVwVlC071hEC6bcDePrJyQOWPOk4mueuJDHo3Bn+HF/WIlHSnBoAEoVSqsa0jQ4jSjs9RQ0ADABIeLtC22V7+WZCIA1XAHVTy21ffTa538JMYiS24uISs3mmb4FSchg1ACTQ8X+Viuk2w189mx8rA8AAgOSxfdcmKQ/vIATSjtbeH8TyrXvqxiUHUiNBHyPR6gS38B1lyKnUAJAwR38tM+Oy8+gR73TeSQ0ADABIsgtskc3b10q4OkgMpOE3gNdEmcbKyf2/6kqMxDPmkrlPiSkXUAJAwhz+lXZGvtnpfKe0e5QaABgAkLQjwMYta6Q6UkkMpN/FnKct0e7sqf2XjhLR/GqMRDn8XzRvhGkZN1ACQEK8VohoQ8klI0u63C2iuI8yAAYAJDdPe7Ju0yqJRKuJgTT9HpAxk29a9vbkfgttajSuuy+Zd63hk7GUAJAgdhmeHDqipPO7pAAABoCU4eq4rN/8g8TivKsNaetiseyvnrxpeQEpGodz4axzTEuepwSARKBEvvRnuAcMf6vzamoAAANAyonGY/LjppXiunFiID1pfYQpesOzA5a1I0bDGvXnWSdYfmsGJQAkyOvBs7FjOp1620vdqogBAAwAqTsCxCKybvMP4mmPGEjXq77MmKcXPX3D4l60aBgjL5rdJiNgfSki3IcBQOO/CigZeOebXa5zHMXFEAAwAKS+6toq2bBltWjhPjdIX8owXnj6pqWTHMfhea4eDTt/eoHfMr7WItx/AUDjHvy1joqhTxtV0vkJagAAA0BaqagOyaata5kAkN4jgMiAFtsu/rRk6PoANere0NNKAll+3zLDULnUANC4z/d6XUYgs82db3T5nBoAwACQloKVO2X7zo2EQHpfFGo5tbx2549TBy1rTY2606/9ZDt//4IvlGm0oQaARn2eVzI7Ji0Pu+2lM7ZRAwAYANLa9uAW2Rni9RBpTktz19VrJvdf2pUY+84Rx2jd9qAPTFMdSw0Ajfv8ru8dUdLpXKf0GH4NEgAwAEBEZOuO9RKs2EUIpDWlxRIts6cOWDZCuFndPqU0LzntRcM0upACQKM9EYlo8byr7nyzyyglip94BIDdZPFD4qlPi8imrT+KZVqSncmP6iK9eZ4e+3T/pSdsaV7e03GK+J2Ze8i5eM59yjR68toBoNEO/0qVe4acPKq06ypqAMCe4R0AaTMCaFm/eZVU11YTA1w8aum+/7aCr567eUk+Nfbg8H/J7MGWZdxOCQCNdj2jZVmotrLtqDc6cfgHAAYA/BZPe7Ju40qJRiPEALQcGYsaG54Z/C9+jn13Dv9/nn25ZZqPUwJAI3rlCGNX+wfev6iCFADAAIDd4HpxWbv5B4nFY8QAG4DWWW4suvzp/st6UOPXjTx/9ulWhllKCQCNRRky8M43O1/dvbS7Sw0AYADAHojGamXtppXiuryGAiKilNavTr5x6eOO4/Cc+DN3njvjkEDA/IgSABqDFh1Xhpw9sqTzE9QAAAYA7KXaaI2s2/KDeK7mZ+gAERElg/ffesmHTu+yDGL8m9N1dnN/pm+5iJjUANDwT8uyznW9ViNLOpdRAwAYALCPqmsqxSv3neh5spkagIiIPmv/QMGq5/qvaJH2h//ismwzx/xKKcnk6wJAI5gbU/sf5rzTbRspAIABAHVkQOkxlbVh8yTtSRU1ABERaVkr0fWT+y/tmr6H/xU+w3UXKSXN+XIA0NC01g+OfLNTN6f0mCg1AIABAHXs5teO21pT7Z6stfA70QERUVpZomX25BsXD063z724uMQ03c0LDEMO5ysBQIM+94po0d5Vo97qcrsSpSkCAAwAqCdDX2r/TW2lPktEeMEF/u9q1Hh8yo1LXi0p1mnyM/BaHRvLe0MZchoPPoAGFvaUcdSdb3V9jRQAwACABjDk5ZM+q6mJX0EJ4D+PxKrHrqbLlk/utzAv1T/X0RfNfdK0zMt41AE0JKXkG0vpA0aVnv0dNQCAAQAN6ObnO5TGa/TNlAD+4+JU5GixzLXP9F9xaKp+js5Fs4fZtnEjjzaAhqS1ei223Tx+WGmXEDUAgAEAjWDA8yc9HquN308J4D+vUlWeq2PfTxmw7MpU+9TuvnjONZZtjudBBtCgT6sit456q9NVzoIi7kEEAAwAaEwDn+0wPBbxXqUE8BNKe/q1Kf2XP6K1Vilx+L9wdhfTMl7koQXQYAd/LXEtqtuoNzs/TA0AYABAgrw+72h70jVuXP+dFMDPL169oVP6fzWrxFnhS+bPY9R5Hxxn2OZsHlEADfb8KbLJ0PEDRr3ZaQ41AIABAAnEcZRnKreLG/eWUwP4Oa9r+ZbYqqlDvtovKb+/u8xp6Q/4v1RKFI8lgAY5/Hvq7262ecjIt8/ZTA0AaByW1vzWN/y6G6Z0iD14zezTswP7facMaUUR4Cdax6PxDX/rv7TouidP/CRZPuhh508vMPzyLy3i5xd/AmgISskE9/iPhzqO41Gj8XH5D6Qv3gGA33XbS92qdKVxnBZdTg3gZxe1WlkxTz6e3H/pwGT4eJ2OZRkBv2+pUkYejx6AhuBp1evONzsP4fAPAAwASBL9Xz2+PBKUdqKllhrAf9OeTHz6xiUvlxRrM4EP/5ZRGP/MUMYBPGIA6ptSulob+vjRb3d6iRoAwACAJDP09ZN+rI24Z4gICz7wy5e7PcubLvvni7cuy0q4w784hpEf/0ApdRKPE4D6p7+Lx61Wd5V2+YoWAMAAgCQ15IX2i6pr4udSAviVS14t7WsqZf3kfgsPSaSPS110+jPKVF15hADU/xOOetvdaR3rvFsUJAYAMAAgyd3yQoc50YjbjxLAr4wAogu0Ya2cMmDZlYnw8TgXzxlnWEYfHhkADXBpefuoNztd5iwoitMCABgAkCIGP99+arzWG0MJ4Fcpz9WvPX3T0ru16Eb7VXt3XTDnBtM0hvNwAKhnccOQrqPeOvtBUgAAAwBS0MDn2o2OReNPUwL4DVrumtJ/2YwSZ4Wvof9o58KZl9o+g+9RAPX9RLfN1eZBI0s7z6UFADAAIJVHgGfb93dd9wNKAL9xaezJOeVbYz88deOy5g31Z448d8appm2/RX0A9UkZ8rkbjRzkvF20gRoAwACAVH/hF6W3rwxf7Ln6S2oAvzECaGkjSv849abl7ev7z3LOn36wP2B/THUA9XoRqeSJ+DGfnOFMu6CaGgDAAIA04Swoisczss/0XG8VNYBfp7QEXO0tnNJ/Wf/6+jOGnzujmeXPWK6UsigOoL5oz71u5JudBzqOw68GBgAGAKSbwRMPq63dHuqgPb2DGsBv8zz9xNM3LX2mpLjErMv/rtOxLDsz4FuulWRRGUA9Hf2rLcPocNc73Z6lBQAwACCNDX23KOhFfcd5WldRA/i9a2i5blfTwz+b3G9hZl385ya3X2ir/NgXoqQFcQHUByXqB9dw2wwvPXsRNQCAAQCQAc8fsyUSjv1BtPD7f4HfHwFOEcNeP3XgsoP25T9TXFxibjmgvMwwjaOICqCeLhjfje80jnJKz9lFDQBgAAD+zy2vnbKipirWhRLA7mwAutCN61VTByy/aC//C+qYaN7rhqHOoCaA+qDEGz3yrU6XOguKGPcBgAEA+G9DXz55QbTWu4oSwO5dX7uu9+5TNy4ZrUWrPfkX7754zuOmZV5OQgB1TYvniXjn3/lW1zEiSlMEAFLgonNgp2d4Qk9jk+Zfr+rzv/9478W3+P3Gw5QGdvNJWamZ4sUuumFKh9jv/bPOhXNuNyx1P9UA1P1zkeyyXKv98HeLfqRG6pn/cAXX/0Ca4h0AqFdDnm/3iBv1JlAC2D1a63PFtL5+5ablBb9z+L+awz+Aejn8i/rCjRa04fAPAAwAwB4b8NxJN7sx/RolgN0cATw5PCzexskDlrX7pf//qHNnnGVY6iVKAaj7JyD9jHt8p9OcaR2qiQEADADAXlB6+wEnXu26+iNaALv5XeNJQMf1osk3Lbv+P//3EefPPtYO2B9SCECdP+8o6X/XO13/4jjKowYAMAAAe81xlLc95Oviefpf1AB2n/b01Mk3LZ3kONoY0W3W/hl+40ueuwHU8ck/Yptmh1FvdXmKGADAAADUzQhQekxUB31/0NrbQg1gT0YAGdB805JFWTn2NyKSQREAdWi15Unr4aVnLyIFADAAAHVqQOkxlVUV3nFa6wpqAHvwZK2MEwubFOb5/T5iAKgTypBZnll+1Ih3Ou+kBgAwAAD14tbXOuyIVMZP1KJrqQHswcW6KMnNzZOszExiANjH5xO5e9Sbnc9zSrtHqQEADABAvRr66smr49X6jyLCjYaAPbtol6ysLMnNzRWlFEEA7OlziDaUXD7q7S6OiOJ3wQMAAwDQMAa91G5hbXXsAkoAey7D75f8vDwxDZMYAHbv8K9kl6vUoXe+1eUtagAAAwDQ4Ia8dPKMaMTrTwlgz9m2LfkF+eKzLGIA+O3Dv5alrmG1dd7qvJoaAMAAADSawS+0eyoaid9LCWDPmYYheQX5EsjglwMA+GVa6+eWW+UdnNKiSmoAAAMAkAAjQIdR8Zh+jhLAnlOiJDsnR7Kys0S4LwCA/7zQM9SA0e907Vta2t2lBgCAAQAJY8CzJ17nxvVMSgB7MwKIZAUyJS83VwzFUzuQ7rToqCFy2p1vdn6SGgAABgAk4AFG6e2rghd6rl5CDWDv+H0+KSjIF9Pi5oBAGh//11tx44A73+7yOS0AAAwASFjOgqL4tnjwdNfV3KQI2EumaUphQb74fDYxgHSj9BzPbHXoyPc7byUGAODnLNH8Clgk2AjwfFHk0d5L2vvF+0GZqglFgL06BUheXp5UVVZJdXUNOYA0oEXdf9fbnYcrUVzcAQB+Ee8AQEIa+vxJwXhN9ETRKkINYO9lZWdJTk42NwcEUpgS0aapeox+p/MwDv8AAAYAJKXBr5y6oaZWOogIdy4G9kFGIEPy83PFMHjKB1Lw8B82RR058s3Or1MDAMAAgKR2ywsnrohXe10pAewb27aloDBfLNsiBpAqh39Dlle41a1HvNP5e2oAABgAkBIGvdT+w3iNdw0lgH18wjcMyc/PE7/fTwwg6U//8uoRRnm7B96/qIIYAAAGAKTWCPBi+5ejEfc2SgD7eGZQSnLyciQrO4v7AgDJevFmyKC73u7Ss3tpd35EDgDAAIDUNOSFDg95UT2JEsA+jgAikpkZkNzcHFGMAEAyffPGtVJn3/lWF14LAQAMAEh9/Z87abAXV29TAth3fr9P8vPzxTB5KQCSwEbPtNqMfrtzGSkAAAwASAtKlF4Q/r67F5dPqAHsO8s2paCgQGyfTQwgUWlZ4JVvONQpLdpCDAAAAwDSSmlpd3d72NfJc+U7agB18EJgKMnPz5NAIIMYQMLxHhr1bueznQV9IrQAADAAIC05pcdEJRTsoD29mRpA3cjOyZacnGxRwn0BgESgte511zvdblOiNDUAAAwASGsDSosqqyLmidqTKmoAdSMjkCF5BbncFwBoREok7BneUaPf7foSNQAADADA/7jtpRO2RWvi7UVLnBpA3bBtW/Lz88S0TGIADX7619/alhzgvNXtW2IAABgAgJ+5+eWTv4tF1BmihbdIAnXENE0pyM8Xv99HDKChzv5K3vB22ccNK+0SogYAgAEA+BWDXzzxi1gk3p0SQB0eRgwlOXm5kpWdxV0BgHrmeXLbqLe7XOksKOIdbQAABgDg90eAk9+MRryBlADqcAQQkczMgOTk5YpSzABAXdMicS2qq/Nel4eoAQCob5bmTdNIIUNeaP/EhN6LWto+YwQ1gLrj9/nEyM+TcCgsrucRBKib0/82M260u3N6p43EQIN+6XH9D6Qt3gGAlDP4+fYj3Zh+gRJA3bItSwoK8sW2bWIA+3wC8z7W+VZbDv8AAAYAYB/taPt+XzeuP6QEUMcvGoYh+Xl5kuH3EwPY68O/TNQn/qOj83xRhBgAAAYAYB85juPtWH1SN+3qZdQA6pZSIrm5OZKTnc3NAYE95Unf0e92Gew4Dj9LAwBgAADqbARYoOKRcOQ0z9PrqQHUvUAgQ/LycsVgBQB+l1K6Wlly/Oj3ujxHDQAAAwBQD24pPb0mXF11gmjZRQ2g7vl8PskvKBTLMokB/Bot33me3equ0i5fEQMAwAAA1KPhr55ZXl0RO1FrqaUGUPcs05CC/Hzx+3zEAH5Ged67Omgd67xbFKQGAIABAGgAf339lPXx2vhpIsLPXAL1cchRSnLzciUrM5P7AgD/930ho+56r9ulzoKiODUAAAwAQAMa/OLJSyKReDdKAPV02BGRrKxMycnl5oBI928G7WlPn3/X213uFRF+4zoAgAEAaAxDXzx5XjTi/oUSQP3J8GdIfkGBmNwdEOlI621a7LbOe11nEAMAwAAANLIhL3Z4xo3pUZQA6o9tmVJQUCC2ZRED6XT4/6d2aw9y3i7aQAwAAAMAkCAGPtfu3nhcnqQEUI8vMIYh+fn5kpHhJwZSn+dN1Sd2Od2ZdkE1MQAADABAoo0Az5440HX1e5QA6o9SIrk5OZKTncV9AZDCh3/pO/q9bv0cR3GjWQAAAwCQkAcTUbp5+KTLXFe+oAZQvwKBgOTl5YliBUBqqVGW12H0e12eIwUAgAEASHDdS5W7I+w70/Pke2oA9cvns6WwoEAs0yQGkp7Ssioiqs1dpd0WUQMAwAAAJAmn9JioW1N7svZkOzWA+mWaphQU5IvP5yMGkpf23tuwfvVR49/pvJMYAIBkYml+Oy0gg185NfxYj6+O82XHV4lIFkWA+qQkNzdXqiurpLqG+6UhuRiinFHvdh0joriCAgAk4esYABERufm147ZWV7odRCRODaC+JwCRrOwsycnNFcWNAZAUX7Tak7i+cNS7Xe7m8A8AYAAAUsCtr3X4NlbrFlECaBgZfr/k5eWLYXBfACTy4V92ae07ZPT0btOIAQBgAABSyJAXO3zi1npXUgJoGLZtSUFBvtiWTQwk3tlfy5LMbH2A827Rj9QAADAAAClo0Ivt34hH3SGUABroxcgwJK8gT/wZfmIgkfzNO6lLh9te6lZFCgAAAwCQwga/0GFCPKYfoQTQMJQoycnJlazsLBHuC4DG/npU5k2j3+16veMojxoAAAYAIB1GgOfb3erG9KuUABpqBBDJDGRKXm6uKMVLFBpFVBvqtLve6fQ0KQAADABAetE7DzzpGs/1ykgBNByfzycFhXlimNwcEA1qja2Mls7bXT4nBQCAAQBIQ46jPNvS3bSrl1MDaDimYUlhQb74fNwcEPVPKTVL28EjR7zTeSc1AAAMAEAau2FKh9j27d5pnicbqAE05KHMkLy8fMkMZBID9UZ7Mv6udzqf55R2j1IDAMAAAECcaR2qJRY9UXs6TA2gYWVlZ0lOTg43B0SdUiLaUOoy5/2uI0SUpggAgAEAwP8Z+OIfdkaq4seKSC01gIaVkZEh+Xl5ogxeulAXh38V8jz78FHvdHmbGgAABgAAv+ivr5+yPlZVe4aI8KuhgAZm27YUFuaLZXFfAOw9rWWpZ1utnfeLfqAGAIABAMBvGvLqqYuiNfFzKAE0wguXMiW/IE/8GRnEwF6c/uW5Fb5gB6e0qJIYAAAGAAC75eaXT54br/VupATQ8JQoycnJkazsLO4LgD04/HsDR7/XtW9paXeXGAAABgAAe2Twi+0nx6N6NCWAxhgBRDIDmZKXmyOKEQC/efCXqHbVmaPfO+cJYgAA0pklmpveAvs0ArzQbszE3osPMG11HTWAhufz+SU/35RQKCyuy1/s4qeUkg2WNjqMnNZ5KzWA/8HlP5C2eAcAUAcGPn/SX7y49z4lgMZhWZYUFOSLbXNzQPzkkPNhQW380JHvc/gHAIABAKgjSpTesSZ8mefKl9QAGukFzTCkoCBfAoEAMSBKjPtHv9+l8+CZ5/FrWwEAYAAA6pazoCi+wwv+yfP0KmoAjScnJ1tycrJFCfcFSN/Tv3HN6Pc6D1OieKMzAAAMAEA9jQDPF0W8SLSd9vQOagCNJxAISH5+nhgmL3Npde7XEhbDOMJ5t/PL1AAAgAEAqHeDXzk17FXJCVrrCDWAxmP7bCnIzxfLsoiRDod/0curpKa1807n76kBAAADANBgBr3eblO0QrcTEW5JDjQi0zSlID9f/H4fMVL79P/aUb5Quwfev6iCGAAAMAAADW7oG+2/ice8IkoAjXw2NJTk5uVJVnaWiOK+AKnG03Kr827Xq7qXdmdwBQCAAQBoPIOfb/9xrNbtSQmgkUcAEcnKzJS83BxRjACp8pjGPe2dPeb9rg9TAwAABgAgIQx5scOrsVr9V0oAjc/v90t+fp6YpkmMZKb1Fq2l7Zj3zykjBgAADABAgo0A7R6Jx7zHKAE0Ptu2paAgX2zbJkYyUvJ3CfsOct7vuokYAAAwAAAJadDz7W7xYvotSgAJ8OJnGFKQnyeBQAYxkoj29EOj3+1S5Cwo4resAADAAAAkLiVK7zjwpO46rv9ODSARvimV5OTkSE5OtijhvgAJ/3C5Xt+7p3W7TYnS1AAAgAEASHiOo7ztlT901Z58Qw0gMQQCAcnPzxPD4CUxQVWKp48aPf2c50gBAAADAJBcI0Bp96hluh20lo3UABKD7fv3fQEsbg6YWLR8m+FTrZ1p3b4lBgAADABAUrphSofqmir3RK11JTWAxGCaphQUFojf7ydGIvDUWxK2jxtW2iVEDAAA6obFD9IBjePW1zrseOLqRSfpDPlGRCyKAIkhJzdHrCpTqqqqidFIlOjbR0/r+iAlgPrB9T+QvngHANCIBrzc/gevVk7jtRhIpMOnSGZWpuTm5ooobg7YsPG152l93uj3u3H4BwCAAQBIPYNearcwFpOLKQEkFn+GTwoK8sUwGQEaghbZJlG37Zhp3WZSAwAABgAgZd38Qrv33ZjXnxJAYrEsUwoLCsS2+SmdeqX0x6rQbuvMPG8DMQAAYAAAUt7gFzo8FY+ruykBJNjZ1DAkLz9f/AFuDlhPnpaT/tHReb4oQgoAAOoXf6UBJJAhz5/kTOq9qK2yVG9qAAk0AiiR3JwciVi2VFTwyzvqrKvn9R09/Zzn5H1aAADQEHgHAJBgdhw47TrPlbmUABJPRiBD8vLzRAzuC7BvJ3+psW33hNHTz3mOGAAAMAAAactxHG/nmtB52pNF1AASj89nS5P8fDEtkxh7dfjXq8TntR751rnLiQEAAAMAwAiwoCgerYic6WlZRw0gAV88LVMKCgrE5/cRYw9ord+VkO9Ip/ScXdQAAIABAMD/uKX09JqqsHe8aNlJDSDxKCWSm5crmZkBYuwGz5C77p7W7VJnQVGcGgAAMAAA+JlhpR1CbiR6omippQaQgCOAiGRlZ0lubu6/FwH8QiTteV78wjHvdr1HRDRBAABgAADwKwa/cuqGWEyfIiIeNYDE5M/wSUF+riiDl9Wf0ttjNXLgmOnnTaMFAAAMAAB2w80vtl/u1srZlAASl2XbUlhQILbNb9j9H4sqI3LQ2Dnd1pMCAAAGAAB7YPBL7f7uRuRaSgAJ/KJqKskryBd/hj+tOyjRU6Vdl1MemtOtiq8KAAAYAADszQjwcrsX3ageSQkgkQ+/Irm5OZKTnZWW9wXwPK/v6Pe79XMcxY8tAQDAAABgn0aAF9uPc2PeBEoAiS0jMyB5eTmi0mQE8ETXio6fNmb6Oc/x6AMAkJgsrbkhL5BsBr3Q/uaJvRe3Nk11KTWAxOWzfZJfmC+hYEjcuJuyn6cStTpmmaeMf6cbv7YUSAZc/gNpi3cAAMl5sa1bVK3qLp58Rg0gsVmG+e+bA/p8KfqEpN/ff//CI8e/05nDPwAADAAA6kP30u7u9kp/kfbkW2oACX5GVkry8/MkMzMz1T6zcXe/3+3iG6Z0iPEoAwDAAACgHjmlx0SrVOYpotU2agAJflQWkezsLMnJyUn6mwMqpT2t3QvvntZ1pIjizcQAADAAAGgIdzx7ZEWoouJYLVJJDSDxBQIZUlCQL4aRnC/BSqmQ1MoRY6afN41HEwAABgAADWxE6Z+2uzWqnYjEqQEkPtuypKCwQCzbTrbD/xIJB1s7s8/5gUcRAAAGAACNZMirJ62MRdTpwr19gaRgGoYUFOSJPyMjOQ7/ov4m7bp0cBZ0591GAAAwAABobDe/ctKXblRfTgkgOShRkpubI1k52Ql9XwBDSX9nWtfrHUd5PGoAADAAAEgQg19q/3Y8rgdSAkiWEUAkKxCQ/LwcUQk3Auiop9QfR7/f7SkeKQAAGAAAJKAhL7R/wnW9+ykBJA+fzy8FhQVimmZCfDxK1BolsVb3vN/1Ux4dAAAYAAAksMHPdxjmufICJYDkYZmmFBQUiO3zNe7hX6v5O+Pxo5xpF+zgUQEAIIWuNUgApK6dB57Ut3Dd4tamUp2oASQHw1BSkJ8nFZVVUlNd3eB/vqflvjHTu4xQorihKAAAqXadQQIgdTmO8natDp/jeXoJNYDkkpOdJTk5OaKkYe4LoES0pYzL7pnebTiHfwAAGAAAJOMIsKAoHqusPUN7ej01gOQSCGRIfkGeGGb9vlwrUeFaN37kqPe7vE11AAAYAAAksVtKT68xau0TtJYQNYDkYtu2FBQUiGXb9XX6XyoZdqvxM87/ntoAADAAAEgB/V89vtyrNY/VWmqpASQX0zCkIC9P/P66vjmgfv5f/lAHp7SoksoAAKQ+S/gpPyBtDH7lhA2PXvXFqXaGtUgYAIHkopTk5OaJVVMtlZXVIvv4Aq49PfSeD855jLAAAKQPDgBAmhn66ilL3VrpSgkgCTcAEckMZEpe7t7fHNAQiWql/sjhHwAABgAAaWDIK+3me3H3OkoAycnv90tBQb6YprlH/57Seks0qg+85/2un1IRAAAGAABpYvCLJz8bd71RlACSk2VZUliQL77dvDmgFrWgiesdOG72OZupBwAAAwCANHPzCx3udV3vaUoAyUkpQ/Lz8ySQkfHb/5xWD4yZ1uXswTPP4yagAAAwAABIV4NfaN9fe/pdSgBJOwNITk6O5OZk/+J9AbRS19w9vesdShS3/QUAgAEAQHofHZTer6rd5VrL59QAkldGRkDy8/PFUP/70q4rvJh35D3vd32ZOgAAgAEAgIiIdC9Vrs7O6ehpbx01gORl25YUFuaLZVrfRFRtq3tnnfsdVQAAAAMAgJ/Y9cNKf0WwIosSQJK/sBumFBYWNmmR3zaXGgAAgAEAwE/07vhchmuYS2rj0SbhcIXwg8JAstPNbdtb92TfxZ1pAQAAGAAAiIiI07HMah1o9ZEy5GARkUhtRKqrqggDJDmlxfBE5j7RZ+Gt1AAAAAwAQNrTys2sfdOw9Mn/+b9WVVdLTU0NeYCU+C43Hpx03eI3HafMogYAAAwAANLUqHNnPa1MddEv/f8qKyslUsuvDAdSYwWQy5qsy/1qcr9VecQAAIABAECaGdFt1ihlGf1+/bwgUhGukGg0RiwgBShRR8biwfUTey88khoAADAAAEiXw3/XGX0tnxrze/+cFi2hUEji8TjRgNSYAXKUYXwzsc8XfWgBAAADAIAUN7zLzPMsv/m33f3ntWgJBkPiei7xgFSZAZT17KS+Sx7QohU1AABIH5bW/MIvIF0M6zzjJNtvTNvT3/PnaU+Cu0KSX5gnpmESEkgJ+rZJfZacMiF7ZbfBEw/jhh9AOn33c/kPpC3eAQCkiVv+9G4bX4b5+d5+37ueK8HykGiPqwYgVSglZ6mqirUT+y5uSQ0AABgAAKSAod1KCrNyAl+JiG9f/juu60owFOJvDoBUGgFE9hMlaydev6QjNQAAYAAAkMT6XTAtM9vMXaaU1Mmv/4rFYhIOh4QNAEihEUCLpTxd9kSfpUOpAQAAAwCAZDz8t59sN3PtfypDta7L/25tbVSqKioJDKQYrbxHJvVZ/EpJseZmHwAAMAAASBaOOEbz5gfMMg11bH3896traqSqqprQQKpRctW2nCWL7+/7SQ4xAABgAACQBJfw8W6nPmeYxtn1+YdUV1VJTU2E2kDqOT5LZ26Y9Jelh5MCAAAGAAAJbOS5Mx8wbNWrvv8cLSKVFRVSW8tvEANSjpJccb3vnuiz6ApiAADAAAAgAY3oNmuAaRq3NtSfp0UkHK6QWDRGfCAFaaVen9R78X1atKIGAAAMAAASxLDOH1xm2WpSgx8QtJZQKCSxWJwHAUjNq4U7JvVZPG/CoJV+YgAAwAAAoJHdcfb0030Z1puN9ed7Wks4FBTXdXkwgBSklDrbqAqvfKzH5/tRAwAABgAAjWR4pw8O9wWsvzf2x+F6WoKhkGjt8aAAqTkDtDED/nUTr11yBi0AAGAAANDQh/8zZzSz/OZipZSVCB+PG3clWB4SrTUPDpCKE4BonzL1J5P6LL6JGgAAMAAAaCC3n/FejpVjrFCGykqkjysWj0s4HOYBAlJ7CXhyUp/FfyspLjGJAQAAAwCAeuQUl/h8eb4vlaGaJeLHV1sblXC4QngfAJDSI0DfbbmHLnyieEU2MQAAYAAAUA+Ki0tMryqvzDCMIxL544xEIlJVWcUDBqQyLSfqnNoNT1y36FBiAACQ2Cx+TBdIuqttdXjFrFJt6tOT4a/Xq6qqxFCGBDIDPHRA6srTWn0/ofeiywc/3/5tcgAAkJh4BwCQZEaeM+sxw1SXJNPHXFFVKZFILQ8ekNqUUuqtSX0XjdWiFTkAAGAAALAPhnWdPtIw1eCk+8C1lnBFWKJRRgAg1WmtRjxx3eIZTvEKHzUAAGAAALAXhnedea1tW/cm8alAQqGwxOMxHkwg1UcAT53TJDvyzaRe/2xCDQAAGAAA7IERRdM6WbZ6PukPBVpLMBgS143zoAIpTx0slm/jpD4L/0ALAAAYAADshjuKpp1gZtpzUuXz8TxPQsGweJ7LgwukOK21X4vx+cQ+i/pQAwAABgAAv+H2jjNa+wL2P1PtezXuxiUUDIn2+DUkQHpQz07qs3Cq42iuOwAAYAAA8HN3dJ6b5880lokSfyp+frF4XEKhkPCrSIH0oMW4vumPi7948JplWdQAAIABAMD/GHpaScBnu8tFSWEqf57RWFQqwmFhBQDSZARQqn2m5a59qveSA6kBAAADAJD2nI5lVmZezidiyAHp8PlGaiNSUVXJAw+kCU+kSczQqyb1WfRnagAAwAAApO/hXxwjlhGZaZiqXTp93jXVNVJdVcUXAJAmlBZDi5r2RN/Fo0S0oggAAAwAQNqJdvvD3wxTdU7Hz72qqkoikQhfBEAa8bSMmdBnyTuT+y20qQEAAAMAkDbuPGemY1qqd7p+/lpEKsJhqa2t5YsBSCNK5KJYzPjXI9d9VkgNAAAYAICUN7zr7JuUqUanewctIuFwWGKxKF8UQHp97x/q8zI2Trjuy1OoAQAAAwCQsu7o/MFFlq2fpMT/HAS0llAoLK4bJwaQXiNAhvLMf07ou6g3NQAAYAAAUs6wTjNP9vnNdyjxU57nSTAYFM/1iAGkGaXVc5P6LHracTTXKAAA1DGL378NNNLhv+OsQ22/fCZauAP2L3DjnpSHglKYny9KkQhIJ1rkhsIfF5/wyND1Z9/yaJsaigB1/00GID2xrgON4K8dpzW1A7JERCxq/MYIEItLMBgSzVAJpB0lcqpdvv3HCdcva00NAAAYAICk1L9jSXZGpv21KMmmxu+LxWISDocJAaQl3Vzc+NqJfRefSwsAABgAgKTiHFPiKwzkfWGI7EeN3VdbG5WKcAXvWATSkNJiiKdnTOq95DZqAADAAAAkx+Hf0Ub8gJw5SumjqLHnaiIRqaqqJgSQprR4D0zss+jtMqeMH50CAIABAEjoS1cV/cfMEqXUWbTYe9VVVVJdw/3AgDReAS75el3+iievWl5ADAAAGACAhDSy68xHTNO4jBL7rrKySmprawkBpCvPO9zNiG946rplxxIDAAAGACChDO86c5hhGTdToo5oLaFwhUSjUVoAaTsC6My4G/9qQt9FvYkBAAADAJAQhnWa0dOy1HhK1MMIEApLLO7SAkhjypPnJvVZ/LjjOFzPAADAAAA0njvO/uBPtt94mRL1tQFoCQaD4rqMAECaPxcMLvzxgg+d3mUZ1AAAgAEAaHC3d55+lC/D/JAS9Xzh73lSHgyJp/kFgUA6UyJnFaq8Hyf2XdySGgAAMAAADWbk2dNa+WxrsYiY1Kh/nutKMBgSzQgApPcIoPV+Wsvaib2XdKQGAAAMAEC9c86dkat8vmVKCW9FbUDxWEyCobCwAQBpPwJYIl7ZhGsW/pUaAAAwAAD1ZuhpJYGYVsuVoZtQo+HFolGpCFcIKwAAZaqHJly7uMRxyixqAADAAADUKadjmRXIy/nIMFRbajSeSG1EKqqqCAFAlNLFTdbkLr+v38I8agAAwAAA1AktWkV9NW+bhupAjcZXU10jVTU1hAAgouSozKha/1jfL48gBgAAIhbvlgX2zciuM58xTOMCvpcSR1W4UgylJCODWzEAkBzDM7594tpFVw94of0r5AAApDPeAQDsg2FdPxhtmEZfSiQWLSIVoQqprY0SA4CIiLhKXp7Qd/F9WrSiBgCAAQDAHhneZeYNlmk6lEjcESAcCkssGiMGgH/z9B0Trl00f8KglX5iAAAYAADsljs6Tz/ftNTTlEjwEUBrCYXC4sZdYgAQERGlVJEKh3547PrP96MGAIABAMBvGlY0vb1tW+9TIjl4nifB8qB4rkcMACIiopVqbbj2hif7LD6LGgAABgAAv3z47/jOgVaG+RnfO8nF9TwJBoOiPe7UCOB/VwCx4lovmNh7yRBiAAAYAAD8xF87TmtqZQaWiSgfNZJPPO5KMBQS4dc1APjJDuA99kSfJS+VFGuTGgAABgAA4rSflukP2EtESy41klcsGpNgOEwIAD/hau/qrZlLFj7Rf0U2NQAADABAOh/+jynxRZtaXxoiramR/KKRqFSEKwkB4Ce00ie6VbUbH++95DBqAAAYAIB0PPyLY0Rb58wyDHU0NVJHTU2NVFdVEQLATymda4j33aS+iy4hBgCAAQBIs0vBSJeTXzYMVUSK1FNZWS011dWEAPATWkR5nrw9qfeisVq0oggAgAEASAPDu8x8yLLMHpRIXRWV1VJbW0sIAP/FExnxRO8lM0qKV3DjVwAAAwCQyu7oPH2QaalbKJHitJZQqEKitVFaAPiFEUCfsyUzsnJCn8XNqAEAYAAAUvHw32n6lbZtTaBEOo0AYYnHXFoA+G9KDhAt6yf2/PIMYgAAGACAVDr8d5z2R9tnvUaJdNsAtARDQfHijAAAfvFZwq9t45OJvRfeSAsAAAMAkAL+2nHakXbAKqNEevJcT8qDQdGeRwwAvzwDiHpqQq+FUx1Hc/0EAEhKlhZNBaS9EZ3e20/Z1iIRsYTvibTluq6Ul4ekID9flMHNvwH8AqWuL1izqP0TxWV/GlBaVEkQJCOtudYB0hULNtLeoHNn5Crb95VSkkkNxOMxCYbDwrURgF/dAESdpDPzfpx4zT8PogYAgAEASJ7Dvz/HVYuVEu7wjP8Ti9ZKuCIsrAAAfo0nuok2rFWT+i66hBoAAAYAIMGVFJeYuZ76yDDlEGrg52ojEamo5N29AH6T8lx5e2LvRaNFND83BABgAAASk1ZLQ9lvKkNOoQV+TU1NjVRVVRMCwG+/omhxJvZaMn1yv4U2NQAADABAghneeeYThqkupgR+T1VVpdTURAgB4LdHAKXPq61V3zxy3YpCagAAGACABHFH5w/uNG11EyWwuyoqKiQajRICwO85xHJrN03o9SXvLgMAMAAAjW3Y2R9cb9vGPZTAntESDIYkFouRAsDvPF1ovyjjnxOvXdSHGAAABgCgkdzacXpny29MpQT2ZQSIx+OkALAbzxjy7MRrl0x2HM21FgCAAQBoSMP+NOOkjIA5mxLYpwt67UmwPCSu6xIDwG6MAF6/wh8Xfzq538JMagAAGACABnB7xxmtzUz1D77eURc87UowGBLP08QAsDsrwKnRWmPdpOsWtyUGAIABAKhHw/44vcDOUMuVEj81UFdcNy6hUFC0MAIA2J0NQDdxXb368d6LzqEGAIABAKgHQ0/7LKCyjOVKSQE1UNdisZiEg2FCANgtSouhtMyceO2ikSJaUQQAwAAA1BGnY5mVmRv6h2mo1tRAfamN1kpFRQUhAOw2LXLvxGsXvzW530KbGgAABgBgXw//4hi1ds0sZcgJ1EB9q6mpkarKKkIA2JMR4JLaWmPFk1ct5x1qAAAGAGAfqEiXk18wLdWJFGgoVdVVUl1TQwgAezIDHBa3Yxsm9l54HC0AAA3F4h5WSCXDO894wDDV1ZqvazSwiopKMZQhfj/3mwSw2zK1Vssn9VrSe+CLJ71ADgBAfeMdAEgZd3T6YIBhqVspgUahtYTCYYnForQAsEdc8Z6fcO3ixx3H4boMAMAAAPyeYZ0/uMyyjUmUQGOPAMFgSOJunBYA9vDpQw8uXH3hx48M/SxADQAAAwDwK24/e9oppmWUUgIJchEvofKgeK5LDAB79vwh+nRzl2/NU72WtqIGAIABAPj54f+M946wfdanIsLvVEbCcD1PgsGgaM8jBoA9XAHUflFxf5x07WJuZgsAYAAA/tetXd9ubmX7FomIRQ0kmrjrSjAYEvG4IyWAPWa5Ws+bcO3iv5ICAMAAgLR3+xnv5fgl8JVSkkUNJKpYPCbBcEiEX0sBYC9orR+a0GtxqeOUMXQDABgAkJ6cY0p8drbvSzGkOTWQ6KLRqIQrwowAAPZuBBB9eeGa3GWT+y3MowYAgAEAaaW4uMSMtsyeL0qOoAaSRSRSK5XVVYQAsHcjgJajI7Vq06Rrlx5DDQAAAwDS5RJIHRbMKVWm+iMtkGyqq6qlprqaEAD28iVQMl3tfj3h2kU9iQEAYABAyhveeeYEZcollECyqqyslEhNhBAA9n4H0PLyhN6LHtVa89tvAAAMAEhNd3SaMcKw1EBKIKkv3EWkoqJCotFaYgDY++cST26ecO2i+RMGrfRTAwDAAICUMqzjB70tW42lBFJjBNASCoUlFosRA8A+UEU6FFr9QO8vWtACAMAAgNQ4/J/9/tlmhvEcJZBSI4DWEgqFxHXjxACwLyNAS79nrp9wzeKzaAEAYABAUru14/RjDdueQwmkIs/zJFgeEs9ziQFgX1ha6QWPXfvlUFIAABgAkJRu7zijtc9vfqmUmNRAqnI9V4LlIdGeJgaAfaK08ciEaxe9XFKsed0EAPwqS2suPJFYbu74Tr7lN5aJ6Ay+PJHqYvG4BINByS/MF27pDWBfaC09NwcWnzCh5+dnDH7l1DBF8OtfLCQA0hXvAEBCGXpaSSBg+5eJ6EJqIF1EYzEJl4e4HgNQFye7Y7Vpr5/U65+H0wIAwACAhOV0LLMycrI/U4Y6gBpIN5FoVCrCFYQAUBcjQK4r1rePX7uoOy0AAAwASLxLFdGqxqx5Xyl1IjWQrmpqIlJZWU0IAHXxyqpE6zceu2bheC2anzACADAAIHEM7zTjWdNS51IC6a6qqkqqa2oIAaBOKCXDJvVePLOkeIWPGgAABgA0ujvO/uAewzJ6UwL4t8pwpdRGagkBoE54nu62OVCz6qlrljWnBgAwAACNePifcZNpG3dSAvj/tIiEQhUSi8aJAaCutI4a8Q0Trll8FikAgAEAaHC3d5x2sWmrJykB/NIIoKU8GJRY3CUGgDp6YtG2Vt6Cib0X30gMAGAAABrw8P9BB8tvvUUJ4Leu1bWEgkFx4x4xANQZz/OeevyaRS+WFJeY1AAABgCgXg374/SDLZ/xKV9/wO9zXU+CoaB4riYGgLqj9DWbMw7+8onismxiAAADAFAv/tpxWlMz01wmSrgbMbCb4nFXwuHQe6LVOmoAqLsRQE6KB3LWPtp7yYHEAAAGAKBO3dp1dpbPtpZpJfxtA7An1+imMXz0tM6X1ET08aJVOUUA1KFCw/NWP95r0SWkAAAGAKBOOMeU+Cxxv1SGtKQGsNtP0HFRZuexM7rdJyJ6WGmHUGVV1TGidYQ6AOqOViL67cd7LRqtRSt6AAADALD3h39HG5EW2XMNpY6iBrC71FZtxw8cN6vr/P/8X0e+/afNyjPbay3cGRBAXQ8BzuO9Fn/gFK/gx/QAgAEA2LtTTOSTGS8blvoTKYDd/KYR+awmN3zQ2OkXbPyl///gV9r9y4upjpQCUPfPP/rcgoyalROKFzejBgAwAAB75I6zpz9umEYPSgC7efGtjAn27H+e+Whp95rf+udueb39x56nr6IYgHpYAQ7QAVn/SK8vTyEGAKQWS/ObpVBfh/+iD24xLWOQ8DUG7B5Drhk7q9vLu/uPD3355NcevnphK1PJg8QDULc8vyHqnxN6Lbpx8IvtJ9MjtXBpBqTz5SZQD24764Mepm08TAlgty7FasTyTho369yX9/Tf/OvLHR7SrnqchgDqZQbQ+ulHe30x1XE014wAwAAA/LdbO87saPuNVykB7AYl3/oya1uOm3H+0r39Twx9td1Q5UkJMQHUy9OUNq4vXL3408n9FmZSAwAYAID/89cz3z3a55O5lAB246LakGlt2zY73nn3kuC+Xp5/El19ldb6U6oCqA+e1qfW1qh1j/b+x4HUAAAGAEBu6/hBC1+G70sRsagB/B5959hZ5150w5QOsbr4r5WWdnczM1WR8tS/aAugXkYA0U2UZ6+aeM3SbtQAAAYApLE7Os/Ns2zja6UUbw8EfptrWOrccXPOGyt1fB+mG6Z0iEUN6xQlaguZAdQLLYYr8VmP91o4SkQrggAAAwDSzKBzZ/iVRBcrJU2oAfwGJTuU5R1y74xzZtXXH3HbSydUuZHaY7SWCoIDqLcdQMuYx3stnja530KbGgDAAIA04XQss7Jj8rFhGAdTA/iNs78hn/t88bZjZ5y/tr7/rFtKT98Vr3VPEJE45QHU3wigz6+pUf965LoVhdQAAAYApPoLv2hVY1a/qwx1MjWA3zr9qyfsWf88w5l2QXVD/ZG3lf5hjefqM4gPoJ6vBg41opENE3p9eRItAIABAClsWNHMJ0zTOJ8SwG9cGmu5cdzscwY64ngN/Wff8urJX4inLuBRAFDPz3QBT6vFj1/9RR9aAAADAFLQHUUz7jZtdRMlgF+9IK7xTN1u/NxzJzfmR3HzK+2nS0z14/EAUO/Pesp49tFrFk5wHIfrSwBgAECquL1oej/TVndRAvgVSn70+QMH3DfzvCWJ8OHc/Hr7qZ6rx/HAAKj/pz8ZlL/q/E9Khq4PUAMAGACQ5O4omt7Nss3JlAB+9er3A19uxRHOtKIdifRh3fLqySO16z3DAwSgAZ4IT9u8Y9u6x3stPIAWAMAAgCT11z9Ob29YxgxKAL9MK3f0uNnnXOCUdo8m4sd386sn9xOtZvFIAaj350PRTbWWVY9fu7gTNQCAAQBJZljHdw70BYxPlVJ8zQC/cK2rLeOC8bP/PEZE6UT9IJUoHdwQvkBcvYSHDEADsLTnzXus15cjRESRAwAYAJAEhnea18Sw/cuUUn5qAD87VCvZ5TPk4PEzuk1Pho/XWVAUD/oqTxeRH3n0ADQIrcY+2vPLNx2nzCIGADQuSzQR8OtuPf7FLK2iy0QkVzRfLMBPD//qC9sXL3KmXVCdTB+383xR5NHeS05SrrdGtM7nkQTQAM+Xl+avyl3+aO+y04c+XxSkSCPjkg5IW7wDAL+qX/vJttWsyadKSStqAD978lTywsq8itOT7fD/v4Y+f1JQV+mjRUktjyaAhjl06qOUm7vx8Wu+PJYYAMAAgATiiDYK8w+Yowx1AjWAnz1xGsZNY+ec17u0tLubzJ/H0Lc7bI5FdQcR8XhUATTQCJCptfpqwtWLehIDABgAkBhUpNPMF5WhO5IC+ImY4TPPGDv7nKdT5RO67Y2Tv1ZxoysPLYCG5Il++dFeCx9zHIdrUQBgAEBjuqNo2kPKEJZ54D8pvU4saTX2g26fpdqnNuT1dvO1p67mQQbQoE+rngwpXP3njx4p/ixADQBgAEBjHP47fjDEsMxbKAH8xxOloWb586oOGz/zvO2p+jkOfbX9K1qrO3i0ATQkz5MzzAzf6ol9F7ekBgAwAKABDTtrerFhq8coAfx/ytR3j519znlOafdoqn+uQ19p/4DWeiKPOoCGpLW0iEe9tY/3XNyJGgDAAIAGcOtZ005TPuMNSgD//5pUGfqKcbPOd0RU2vzCpKGvdBginpTy8ANoSErE0sqb93ivhbwLEQAYAFCf/tpx2pG2z/zo36+/AJRSu/zaO3Tc7PNL0vCz15/GVvfwtPqMrwQADU178vCjvRa+WlKsTWoAAAMA6tiQTu/t57PNhSJiUQMQEZGvfKY+yJn359XpGqC0tLsbjmYUKVHf8eUAoKEpT3ps8i1adl+/hXnUAAAGANSRDDtLAsr+WkSyqAGIKFHP/5BfeZIz87xwurdwSo+JRsI1J4uS7XxlAGiEJ+RjMmr0+seu/vIIYgAAAwD2kc8OSG5WM1FKmlIDEBFl9h8399w+paXdXWL82x3v/7HCiBjHiKgqagBocFrliKhvHr/2i+7EAAAGAOwl0/RJXmZzUfzIPyAiEhORjuPndHuKFP9tcGm77WatdZxoYRgB0BiUdo03Hr164cNaNBcuAMAAgD16wE1LCrNbiKF46AFRssGvzNbj5573d2L8ukGlJ6wRV86gBIDGe7qWWx6/evG8CYNW+qkBAAwA2J0XT2VIYdb+YihurAuIkjn+vLaHOHO6bSPG77v59Q7/jHveZZQA0Hj02V4wtOqxHp/vRwsAYADAbx7+lRRm7y+mwc3+AWUYD4+bc+45TukxUWrsvltfPeXtuKdvoASAxtsApJVY1vpHenxxFjEAYC+ug/t0mKTJkPoKsluI384kBNL+0tEQdcXYueeWkmLvPdLji/GGYQyjBIBGfUJX0n/oyx24f8temDU2zPU/kKZ4B0AayMtsxuEfEKkST47l8L/vbnntlBFa6xcpAaAxKS1PPt5z0YslxZqfbQQABgCIiOQECiXgzyEE0vwqUVb4LWk5fv55/yJGndChwz/oI1rNJgWARn0yEn3NRv+iJRN6fp5LDQBgAEhrWf4CycrIJwTS/OpQv3pSXuUJzszzwsSoO47jeMHD2/1ZlCynBoDGpLQc5xn2j4/2XX4wNQCAASAtZfiyJSezgBBI77O/UreMn3d+z+6l3fkd9vUyAqh40GryB0/rtdQA0Kg8XaBqoz88ds3CYmIAAANAWvHbAcnLakYIpC0lElem6nzfnHMfpUY9jwDPHxSplchJWiREDQCN/vTvScljVy8aq0UrcgAAA0DKsy2/5GftJ0p43UPaXv9tkICv9bhZ586nRcMY/uqZ5abYx4qSGDUANDqtRzzec/EHTvEKHzEAgAEgZVmmTwqy9heleFiRpkd/kU/8sYzDxr3feSs1GtbgV07Y4GlpLyL8aikAibACnJvnq/5hQp/FvCUSABgAUvCBNCwpyG4hhsFDirQ9/T/mm/vFWc6CoggxGsctr3T4Ku7pbpQAkBgvC6qNF/c2Pn71F6dTAwAYAFLnBU4ZUpDdQkzDIgbSklZy9fg55w11xPGo0bhufe3kua6nrqEEgITgia218enjPRfeSAwAYABIgcO/koLsFmKb/Jgb0vEbQFdbhnHsfXPOe4UYieOvr7V/2dUyjBIAEoUWeerRqxc+X1JcYlIDAAMAkvTwI5Kb1Vx8VgYtkH4Xc1q+8Txfy3tmn7OCGgk4Arza4X6t5SlKAEiYyyYt127MOPizyf0WZlIDAAMAkk5eoJkE7CxCIB0v4t7KiAeOv39eF371XAK7+dX2Azyt36MEgIR5/fDklJoqWf9o7yUHUgMAAwCSRk5GoQT8OYRA2tGeHjFu3nnFzoKiODUS/EJblG4dW3OZ1t4/qAEggRSqmLv6kZ7/vIQUABgAkPAy/bmSFcgnBNLsMClxZarO980/f7zwq+aSRvfS7m6rWFbH/9fefQdIVd97H//+zvSd3WWX3hFbVKy4gC330WuMYWm2XWliiYLdCIh60yaJ0nUBRYQ0xYKyIkaNGJWiRoFlUWMkiSh2jRVkd/rMOd/nj5s8j0kslC1zzrxff91rAHfeZ9yZ34fZGVXZSg0AhfSwYonvwbrxjT8WUUMOAAwAKEihYFTKI50JgaKiKp/aau83/fGhq6nhxhFgQDaYixztqPmYGgAKagVQ+fn88ZsfWTyxMUANAEXxfe+8o2/lb9JcIhgIS2VpDzHCUI2isj6TiJ9ct742RQp3mzdmQze1fG+KmAg1ABSYt21HqqYuq/q0GG7sqhuaeP4PFCleAeASAV9QKqLdOfyjuBhdEH6q4QQO/97wg2XHfJRT/xEi4lADQIHpZ1nyzoIJm44iBQAGALQrn88vlaU9xDJcLhTT2d+cN/PJYVfFJMZh0UOm3XvUa+LYJ1ACQME97ohEbNu8MG/8pknUAMAAgPa5QMaSymh3sSwfMVAsJ/+kZfxHzVg99E5ieNPVy4asF1trKAGgEKma2+vGNdwai8V4ngyAAQBteA4yRipLu4vfFyQGiuROL69nLF+f6U9+9yVieHwEuG/QA+LIlZQAUKBPkS+reG3YH2+++nneswQAAwDaRmW0qwT8YUKgOL4ZqTyyfXvXQ+r+8L3t1CiSEWBZ1S3qyExKAChEKuZY81HwnVvHvtCPGgAYANCqOpR0kWAgSggUCedH01dXj1qyuSpHi+IyeVnV/6jqXZQAUJCMdM5azhvzxm4+lRgAGADQKsoiHSUSKiMEvP+8yqhjifnezKeG3ygifCRRcdKmA39/noo8QQoABflYpWKp0cfrxm36oQgfxwSAAQAtKBruINFwBSFQDE+pPrNs2Xf6U0P/QIviFovFnGhUhovKy9QAUMCPWzfUjd/8u8UTGwO0AMAAgL0WCZZKWaQTIVAEz6FkQziS73vjmmFvEwMiIpOWVOV2NsuxKs771ABQsFRHJOLyct15L1YQAwADAPZYOBCR8mgXQqAYLAkfP/T42CMjkqTAF8UeqUpmNHyYqOykBoBCZYwcpDn7g7rzGo6kBgAGAOy2oD8kHaLdxPBjZfD+06ZJM5+qnhSLGYcW+DLX33v4DsdxDhMjvCEkgMJ9NBOJSM56cd64hvHUAMAAgF3mt/xSUdpdjOFSwMNUUhKQgTOfGrqEGPgmU+4b/K6xTZXwxpAACv7hzbrr5nEN82OxGE/kADAA4Ov5LJ9UlvUUy/iIAe9+k1HZFvZbvWeuqn6RGthVP1h29MtGzVBKACh0RqwryxlKkDcAADWvSURBVF8d9uzNNc9HqAGAAQBf/mBhjFSWdhef5ScGPHw/l8f6fd714NgfvredGtjtEeDeo//g2Pp9SgAo+Mc7yxxnBYJv3zS6oQ81ADAA4D8O/x1Lu4vfFyIGvHz4/+mMJ4cOn7S5ip/lxh6bct+g34g6P6EEgEKnRroYn/XGTaMbTqYGgIJ9jn7ewFv4Gcs2LS7SIdpNIoEoLeDZ50BiOWfOfHLESlKgpdSN2XS7GJlECQCueCBUc/3kZVWzpEDfy2TVDU08/weKFK8AaGNlkc4c/uFZxpjt4YC1L4d/tLQfLKu6REV+RwkA7ng81Bl14xrvWV6jvNETAAaAYlUa6SjRUDkh4Ekq+kLO8vWNPT70LWqgxZ9Mi9HeuTfPdBzdQA0A7nhg1DHvBTe/PLOmsQMxADAAFJmScLmUhisIAW8ezixz5xsdk4PnPnFqghpoLbX1tXZg56cnijGvUwOAKx4fVQ8JBeX9m89tGEANAAwARSIULJHycGdCwJtPbsS6eMaT1efV19fa1EBru3JVdWan5I9WMZ9RA4ArqEZNzvx53jmNNcQAwADgcYFAWCpLuokYWsBzR/+Mo86QGauHLqYF2lLsnmOa8jnnUBFJUQOAWx401dbldWMbb1JVnhUCYADwIr8vJJXR7iKG7/PwnHdMUPrMXjOigRRoD9PqB3/o2M6RIuJQA4B76OR5Yzc//dvz3gzTAgADgJfC+gJSWdpDLENieM7j4Y6JA2asqv6EFGhPU+4fstVx9NuUAOAqRr+9M/fpa/PG/LkbMQAwAHjh+7rxScdod/FZ5IW3qJjpM1dXV8fqa7PUQEGMAPcNfl7VOpsSAFz1eKrSW63MuzeNbjiZGgAYAFx9+reksrS7+H0BWsBbZ3/Lqp21uvqHIkbJgUIyednRyx3HXEUJAC5bAQKWZZ66eVzjpcQAwADgUpXRbhL0hwgBLx39m2zL+dbMJ4fWEwOFasp9VQtsW2ZTAoDbGNWFdWMa7l5eoz5qAGAAcJEO0S4SCkQIAe+c/Y28FHZKes15csRr1EChm3p/1XWqch8lALhvBTDj3g9ufmnBuA3lxADAAOACZSWdJRIsIwS8c/gXufuNykRVbN1JcWrAJc+gtelbVePUkXW0AOC+B1491Bbfu/PPe/EAYgBgAChg0UiFREMMtvDQMcqYS2etHnZOfX2tTQ24SSxmnGi5+a6ovEINAO4bAaTcyeZfnXdOYw0xADAAFKBIsFTKwh0JAW8c/EXy6vP/nxlPVS+iBtxq0pKq3M64GeKofEANAG58OFZbl9eNbZyjooYcABgACkQwEJHyaBdCwCvPN94N+fy9Zj1x6jO0gNvFHqlKNudzh4lIEzUAuJNOnT+u8bFYzZYgLQC02DP+cwfewkd67YGALygdy3qKYUOBN6xNhszQW1ZVZ0gBL7lpdEMfY5ltosJnswJwq3dtf7DqmruO+Lil/sBVv2ji+T9QpDi97gGfCUhlaQ8O//AGY908c031yRz+4UVT7hv8rpOzjqUEABfr47Oz780f33AcKQAwALT54d8nlWXdxTJ8VCs88R1g3KzVQ6cYMfxNADxrav3Rm9WWYZQA4FoqAds2z80/p/FiYgBgAGgjRiypiHYXv8UrSeH6JxLNlpFvzXpq2L3EQDGYsnzQY6LOhZQA4GZ2XhfVjd105/Ka5fxNFAAGgNY+/leWdpeAP0QKuPuebOQvkbDpPWP1sK3UQDGZfN+QX6tKjBIA3ExVJrwf6N+wsGZtKTUAMAC0kspoVwn6w4SAu580iC4b2DFxeGxVNe+MjqI05b5BP3NUllACgMtHgIHZQNnbc2o29qcGAAaAFlYe6SShQJQQcPvpf8rsNcPH1tbX2sRAcY8AVReL0UcpAcDdI4B29PmtbfPOaayhBgAGgBZSFq6UklAHQsC1jEje+M3Js9YOu5kagIgRo00fJE4XlReoAcDt39KcvC6vG7v5pyJqyAGAAWAvlITKJRquJARcTD9yfPl+M5+oXkML4P+LrTsp3xSOHy8qb1ADgOsf7dWJ3TS28dFYzfIgNQAwAOyBUCAq5eHOhICLnwzI0x85n+wz+8lRH1AD+JIR4I6T0n6ffZQx5jNqAHA7o1JdHui/dcH5L3ShBgAGgN0Q9IelsqSrCC+kgnuP//NK1m767zvWnZ+mBfDVrrznmKZczjlURPlvBYAHHv6lXy7tvH3T6OePIgYABoBdELACUhHtJmI4/cOt/1Wbc2etGX51TGIOMYBvNq1+8Ie5vDlSRPhvBoDrGdGIMYEX5o3fNIkaABgAvobP+KSitIdYxkcMuFEiqL5DZz1VvZQUwO65tn7Qq7bKyZQA4BWOLbfXjd20OBZTnu8DYAD4zxCWVJb2FJ/lJwZcSP8mVrDXL9Z+bwstgD1zzX2D1jm2M5YSADzz7EBlYvnWF/64eGJjCTUAMAD8gxFLKkp7iN8XIAZc+OguKyJO9LBZT52ykxjA3pm6fMgyFbmaEgC88zzBOTYRl3duHftCP2IAYAAQkYpoNwn6Q4SA+x7TjfzPrLXDamLrTspTA2gZU5YNmqeOzqMEAO88YdBOWbXfnDdu83BiAMXNTDhqgRZzgA4lXSUSLOOeAHf9h2vUscU6Ze6a6jXUAFrhubKoqRvduFyMnEUNAJ56DmGZ/znoWwdOpwRQnIr6FQBlkU4c/uHCR275OCval8M/0Jr/mRltOqjqbCP6DDUAeIk6yuEfYAAoPtFQhURDFdwD4LJTiVmf61S5T92aEe8TA2hdsZhxSsqs76gob64JAAAYANwqEiiVskgnrj5cdviX20v+q+GEuvrjUsQA2sakJVW50rg1WFX/Tg0AAOB2RfeZd0FfiZRHu3Ll4a6zv8+cO+up6qXCi/6Bth8BHqlKzh3TeLgl8qaKllIEAAC4VVG9AiDgC0llWTcxYrjycMfB30jS8pmBs56qXkoNoP1MXVb1qWjuMBGxqQEAABgACpzPCkplaXcxfPIh3HP4fy0b8PWZ+VT1i9QA2t/V9x37luNkj6UEAABgACjow79fOpZ1F8v4ueJwx+FfZEXEKTmk7g/f204NoHBMvf/4TZpzRlACAAC4cgDw+t+IG2NJZbS7+EyAqw233Gl/NGttdU1s3Ul5YgCFZ8oDQx51HHMRJQAAgOsGAMvyefccJUYqo93E7wtxpeGCc786RnT47DXVN4oYpQhQuKbeX/UrtSVGCQAA4KoBwGe8OwB0iHaVoL+Eqww3nP4/y4vZd9ba4b8nBuAOU5YP+rmjegclAACAawYAy/J58m8ayyNdJBzg05rgAuqsz6Uq+ty0ZtjbxADc9V9v/KDHvi8qT5ACAAC4YgDw+4Ke+znj0nBHKQmVc3XhAmZJyYnDT6hbf1yKFoD7xGIxp+nD+DBV2UwNAABQ8ANAwB/21CsASoLlUhqu5MrCBf/16Xmz11ZPisWMQwzAxSPAupPyzeH4CeroW9QAAAAFfQTx+YIqxnjixoQDUSmPdOGqotCljDhHzl49/E5SAB4ZAe44KZ1zrCNVzA5qAACAgh0AxLbfC/sirr8hQV9EKkq6iRguKgqXEX09F/T1nrV2xJ+oAXjLdfVVO00+e5iqZKkBAAAKkd9W+6/hYPl+6VzSvTfCF5CK0n8e/vn0NBTs6f+xSKfk6bPqazkcAB41uf649+fVbDrc9slfhUkaQIHi2TJQvCy19ZVwoEQsy+/OG2D5pbK0p1jG4mqicM/+qj+evWb48BiHf8DzflA/6NV8Xk+hBAAAKLjzc07t9WLEle+ab4xPOpb2EJ/l40qiUKnPCoyYtW7EDcLgDhSNax8YvNqIM44SAACgoAYAO5DfJCISDXUQn5teBWAsqSztJn5fgKuIQr2T7lRjHTBj9amP0gIoPpPvG3KvozKNEgAAoGAGgMXPjv9Q1RFjjJRGOrnmC68o6SZBf5griELVUFLq9JyzpnobKYDidc39g+aIyK2UAAAABTEAGDGay+ZeEBGJBKMS9Bf+JwKUl3SRcDDC1UNhUv1Vyf8ZdmzskRFJYgCYfF/VleLoSkoAAIB2HwBERLKaW/rPf9Ah2rWg3xCwLNJRSkJlXDkUJGM5F89eN+KiWMw41AAgImLEaPMhg84S1WeoAQAA2n0ACPis//c3Ez7LJ5XR7iKm8D69qCTUQaLhCq4aCvEpfsYWqZq1euRiWgD4d7GYcZqd6CkiupUaAACgXQeA+X+sfcex7R3//IcBf1A6lHQpqE8wjgTKpbykE1cMhXj4f8eXN31uWjt8My0AfOUIUD8g6wRCA0XkI2oAAIB2GwBERDLZ5MJ/OXAHS6WipFtBvBKgJNRBOpR25mqh4Kiap1Jhc+CMZ6s/oQaAb3LNXUck1JhDRUyCGgAAoN0GADucXvjv/2M4GJXK0h5ijNVuX2BZpCN/84+C5Ij+Ys666u/esqo6Qw0Au2rqsqpPjZ09UkR4rxAAANA+A8Bt687/MJdPv/jvvyDkD0vnst4SaOOP3DOWTyqi3fiZfxQkNVI7d+2In4gYpQaA3TW5/rjXjS3HUgIAALTLACAiksokp37ZL/L5/NKprKeURTpLW7wxQDgQlS5lfSQcjHKFUFgHfzU71Vj7z1kzvJ4aAPZuBBjUICKjKAEAANplALi9YcKavJ3/+Kt+cTRcLl3K+0hJqLxVhoCgv0Q6lvWUitJuYlkWVweFdfh35KWoJHrPWVO9jRoAWsKU+wY9bFQvowQAAGjzAUBEJJNJTPy63+Dz+aW8pLN06dBPoqEKsSz/3n0FxpJwoFQ6lveWjmXdJdjGP2oA7OId9a63uiarYutq47QA0JIm3z/4NlX9OSUAAECrn2q+9MnICQ+97w/4e+7qH5LLZyWbS0o6n5S8nRNV+2sP/H4rIAFfSMLBqAQDYTGF9HmDwH/cZ80ls9cMu50QAFrzO81NYxrvENUJpADQ2g4+5FtEAIrUl/71fSoXP7PUX7F+l/8QX1D8vqCUSIWIiDjqiO3kRB3nC2coI5YVEJ/l+9ffrCK8ixoK8tm4SF6NdeKcNdXPUQNAK9Pmbz16fulfqrsZY04lB4DW/Y5DAqCIzzhf7srj6p8KBSMnkwhF+bio+n7QHzl6+urvfEQNAG0lduJaf3m30k0qciQ1ALQWXgEAFK+vfKe9YDw1SlSzJELRMWZNpsS3H4d/AG0+AKw7KS9O7jhVfY8aAACgxY86X/c/XjL4nprSkg7LyYRioSKz5qwbdr0Rw4vjALSbmTWNHQKWvikildQA0NJ4BQBQvL72s/YWNYyrT+dSD5MJRXL8Hz133fDrOPwDaG/X1VftzOfsw0WEV+IBAIC2GQBERDoFtpxpO/l3SQXvnvulSQJ64Jx1I+4nBoBCce2Dx7xn8jpQeLsuAADQVgNAbF0sH098NFBFM+SC5xjrZZO3e895csRrxABQaCavGLxFLeFTAQAAQNsMACIiSzZP+rSpeecgUXFIBs+c/dUsi2rk6NnPjWqmBoBCNXXZoCfV1vGUAAAAe30G2p1ffPHge/+7LFK+evd+F1CI9Adz1o2YTwcAbnHT2Zt+KCI3UALA3uJNAIHiZe3OL769YeyaRHLHULLBrYxRRy3rZA7/ANxmyv2DblSVWygBAADaZAAQEblt0zmPNyU+/47wpkRwGVX9u6rVa+6a6jXUAODKEWB51VUq8hAlAABAmwwAIiKLN41fnUzGD1LVBAnhkuP/06WmdN8564Z9SAsAbmXEaPzgqjNFnGepAQAAdv+5xF645IR7KkNa8kIgENiHlChc1tzZ64ZOM2J41QoAT1hesyX4jpV6xYgeQA0Au4v3AACK+GS0N7950R/H7ah47k/7pbPJO0iJguTouXPWVV/D4R+Al9TWD8jGneaBYuQjagAAgF3VYu/nf8ngZd+OhqK/Nz6rjKxobyoSV9FBN60b8TdqAPCqOac/19UEA28ZMRFqANhVvAIAKF5WS/1BixrGPPv29nTndCa1lKxoV478xedP9ubwD8Drrll5/McBn3OEiDjUAAAA38S0xh96/qDf9Cnzl90XCkaOIzHakmXMioiUjI6tOylPDQDFYs6ZjUOM39lACQC74pBDDiICwADQ8iYdtawqUhK8LeAPDSI1Wv3ObGTq7HXDb6IEgGJ0c83G0x3LPEgJAAwAANplAPinCwcv7V/ii8wKBSNnSgv+2AHwj3ux7Vjmv29aM+wZYgAoZnNqG640RuZTAgADAIB2GwD+aeLRi0t8vrLvh4OlP/b7rC7kx97Tj/M+GVi3ZsT7tAAAkbk1G2aIZV1HCQAMAADadQD4oklHLa0KR0pjwUBwGJcBe6ghWq4nxR4ZkSQFAPz/x/Y5Z2+6w4hOIAUABgAAX9RuL8df/OKExvnPnzF8ezbZKZlJTFfVBJcDu/zsVs3t0acbj+XwDwD/QRMHV52vqmtIAQAA/uUcVShfSI0s91UMzA4tLSm50e8LHs6lwVc/tdVz5zwzgo+bBICvETtxrb+sS2mDWnoUNQB8Ea8AABgACsoFRy3rWRLw/zgSiXxfRAJcJvxD2qfWcTOfqX6RFADwzW6ueT7iGP9rYqQXNQAwAAAwhfzFXbH/glCuosu4aDj6E8tn9eNyFfUd9fVcNjmkbn3tdmoAwK6bWdPYIWCct9RIBTUAMAAADACucHHV0kODgejPQ8HQaW76utES9KGd8Q9ql2yelKMFAOy+WWf8qbcvmHlDlFfVAWAAABgAXOS8I39bEQ2WXBoORSZbltWJS+h11s/nPD00JmKUFgCw5+pqGo60LeFHqAAwAAAMAO4Tk5j14cADTwxHorGA3/dtLqXX7pjqOI4zcu6zo35PDQBoGXNrN54qxjxOCYABAAADgGudf+hv+pRGy6eGQqELjTElXFZ3UzWf244eXffH4W9QAwBa1qyaDef4LItPUgEYAAAwALjbFfsvCOU7dj6nJFR6rWVZ+3N5XXj4d2RzaVL/K7Z5RJIaANA65tQ2/NgY+TklAAYAAAwAnjDpqLuOCEei1wX8gbOMMX4udeGz8/mH4+mPzuLN/gCg9c2t3bRAjF5BCYABAAADgGdcOmB5qSnRC8LhkqmWZfpwyQtTOpNcdMuGmst4sz8AaBsqam6uaVyplo6iBsAAAIABwGtPdcyko+79drik9EcBn/Ud4aMEC+bCpDOJy2/dOPo2UgBA21peo753zabnVWQwNYDicTADAMAAUEzOG/Db7uVlZZcHAqFLjJGO3A3a6+gv8URi5ymLXhi/gRgA0D5iNVuCpZJ4RYwcQA2AAQAAA4Bn1dQs93XZlhsVKS3/sRE5krtD27Ed541U085jb395wsfUAID2NWvk38r8keY3VLUzNQAGAAAMAJ533pH3HFAejkwOBgPnikiEIq0nn7ef+fyDHafe8db5aWoAQGGYc/pzXSUQfNOI8nG6AAMAAAaA4lBz7PJIl5wzIRKJTjNG9qVIy8pms7fN33DG5YY3+wOAgjP7zA0HWD7rbyJiUQNgAADAAFBUbS4cePeQaKh0ciDgO11E+CjBvWMnU4kpt20aPZ8UAFC4ptdsPDZozPOUABgAADAAFKVLDrun0h8NXxYMBK8wRrpSZPeoyo6m5vjwX740hieUAOACdWc3nGGrrKAEwAAAgAGgaNXIcl+ngc7QSCRylc9nnUy/XTr8v96c3HHyks0T3qEGALjHnNqGK40Ir9oCGAAAMABg4tFL+0b8pZf4g4FJxkglRf5TPm8/8Xlwx6g71vFmfwDgRrNrG+ZaIlMoATAAAGAAgIhcsf9joXxl09hIqOQqyzJHUOR/ZTK5xZ02vnxpTGIONQDArdTMqWm40xhzDi0ABgAADAD4gouOuHdAtCR6pc9vnWNM0X6UYD6dzlxxa8NZt3OPAAD3i8XUKv1L41MiehI1AAYAAAwA+DfnHbmyojRkXxwMhi6xjPQtmhuu8kkqnhq18MXa9dwLAMA7Fk9sDDTv0BfE6KHUABgAADAA4MtPxOaSQfX/FQ5GLrMsOcMY8Xn2ljrOSzsSyWG/eXHMB1x3APCe2IjGkmgk/5oRqyc1AAYAAAwA+BoXH7G8V6gkeJXf77vAGOnkpduWz+ji9+PpK+u31Ga50gDgXXPHNHaWvL4pRkupATAAAGAAwDeYePTigN/qWBsOhS63LHOMm2+LqnycTKYuWLS59vdcWQAokhHgjBf6Ob7865YRPzUABgAADADYRZcOXL5/KBi+wgqYC4wRN/1titp5vTuRSV+xZHPtTq4kABSX2Wc3DrTU2UwJgAEAAAMAdtM5hy+NVoajF/iDgUuNMQX9HVkd59lsMjn51hfHNHLlAKB4zT1r01A1+hglAPc5ZAADAMAAgIK4HpcdteLbwYj/CstnjRKRQMEc/FWeT6XTNyxqrFnFZQIAiIjMPnPTBcbSX1MCYAAAwACAvXDx4Uu7hqKlF/v9gYtEpHc7fRlZ29aVuVR6Ph/tBwD4MnNqN8VE9aeUABgAADAAYC/FJGZ9cuTB3wuWRCYanznFiJS09qFfHX06l80/mkxuv/vXWy7czlUAAHyd2Wdt/LUx5gJKAAwAABgA0EJqBiwPdgn7jg8GfdWWz3ecMXK0iIT29s9VkXc0r09m7dzvm9KJJ+56eUKC2gCAXX8cUTO3pvERER1GDYABAAADAFrBxKMXB3xadrDxBQ4LBkIHi2ofy5heYkmliFQYY0pUJCuqeRHJiMpnqvKZqr7lqLPNzqT/4uSdFxb9edwOagIA9kbsxLX+aNfSDaJ6NDUABgAADAAAAMDDFgx9LJQt7fKKiu5PDYABAEDhsUgAAABawpWrqjPxoH20iPmMGgAAMAAAAAAPi91zTJOKHqoiaWoAAMAAAAAAPGxa/eAPNZM9UkSUGgAAMAAAAAAPu/bhE15VkZMoAQAAAwAAAPC4afWDnxY1YygBAAADAAAA8LhrHhh0n4r8gBIAADAAAAAAj5tWP3i+qqmjBAAADAAAAMDrI8ADVVPUyD2UAACAAQAAAHia0eQhgyaIyDpaAADQTo/GJAAAAG0lVrMlGJX4y6LmW9QA2schAw4iAlCkeAUAAABouwGgfkA2kfYNFKN/pwYAAAwAAADAyyPAI1XJSF4OE2MS1AAAgAEAAAB42OUrh3xmizlERfLUAACAAQAAAHjYdfVV71h55xhKAADAAAAAADxu6kPHbFbREZQAAIABAAAAeNy0B4Y8aqtMpAQAAAwAAADA465bMfiX4miMEgAAMAAAAACPu+bBIT8Tkd9SAgAABgAAAOBxUx8Y9H0j+iglAABgAAAAAB5mxGj80+TpKrqZGgAAMAAAAAAPi607KZ8sTZ5gVN6iBgAADAAAAMDLI8AdJ6WDYecIFbOdGgAAMAAAAAAPu/KeY5rU7ztMRbLUAACAAQAAAHjYtfcN/ECNOVxElBoAADAAAAAAL48A9YNezRv9DiUAANg7hgQAAMANZp+5cYwYuZcSwN45ZMDBRACKFK8AAAAArjBtxZBlRvRqSgAAwAAAAAA87poHjplnHJ1HCQAAGAAAAIDXR4AHh0wW1XpKAADAAAAAADzNaPKwIaNFzNO0AACAAQAAAHhYLGacpIl+V0RepQYAAAwAAADAyyNA/YBsh4xvoKr5OzUAAGAAAAAAHjbpkaqkL2gdLsZKUAMAAAYAAADgYVOXVX1qxDlMRG1qAADAAAAAADzsmvohb6qaYygBAAADAAAA8LhrVwxpVOOMogQAAAwAAADA6yNA/bEPi5pLKQEAAAMAAADwuGkrBi9SR35GCQAAGAAAAIDHXfvgkJjaciclAABgAAAAAB6XOmLVBSLyOCUAAPhfhgQAAMCrYieu9Uc7lWxWI4dTA/hfhww4mAgAAwAAAID33FzzfCRv+14VI32oATAAAEVLNcGPAAAAAE+bXH9cKhzpeKgYs50aAICiPf+Lfs4AAAAAPO/Kew5oypr84SKSpQYAoDgHAKeZAQAAABSFH9Uf976T91VRAgBQlGzDAAAAAIrHdb+r+rMR5xRKAACK7vzPewAAAIBic82KY59yxJxDCQBAMcnnc+8wAAAAgKJz3YrBd4uRaykBACiaASBnv80AAAAAitK0B4bMdhwznxIAgGKgjrONAQAAABSta1cOulpEfkcJAIDX2Y7yCgAAAFC8jBjdZL19pqPyDDUAAF6WFd3KAAAAAIpafX2tnfaVnqKqW6kBAPCqdzv3+ZABAAAAFL1Y/YCs5PNVquYTagAAvCaft9+MxYzDAAAAACAi1z58QrMvZB2iYhLUAAB4SSadeV5EhAEAAADgH6Yuq/rUSOAoEVFqAAC8ws476xgAAAAA/s20FUe9ZqkZQgkAgFck7fSTIiKGFAAAAP9p1pkbTxOVlZSA1ww49CAiAEVEVbLDf1EeNmKUVwAAAAB8iWtXDHlIjFxBCQCAm6VTmdVGjIrwIwAAAABfNwLcalTnUgIA4Fa5rF3/z/+bAQAAAOBrTFt5zDQjspQSAAA30lz2IQYAAACAXXzulDx81flq5AlSAADcJJfNbx23qN8OBgAAAIBdFIvFnPRnyWGi+hI1AABukUyn5n3x/2cAAAAA2JURYN1J+YDfOc6IvEcNAIAbpIzezwAAAACwBybXH5cKOMHDRMxOagAAClk+m3vxwro+2xkAAAAA9tDVDx31uYhzqBjJUQMAUKgSqez1//7PGAAAAAB207UPHvOe5eQHUgIAUIhUJPlaZY8nGQAAAABawDUrj3/FWL5TKQEAKDTJeOKmWMw4DAAAAAAtZNoDVU84Ys6nBACggGjYH5jzZf8DAwAAAMBeuP7BwXeIkR9RAgBQCBLJ1JJRs7s0MwAAAAC0gmtXDLlRRJdQAgDQzjSYD133Vf8jAwAAAEALmPbgkIuNyu8oAQBoL4lE6renz6v8nAEAAACgFRkxuo9/8JkqsokaAIB2YOeyzVd//WMVAAAAWkysZkswYse3iMj+1EAhOmTAQUQAPCjeFL9uzPxes77u1/AKAAAAgJYcAOoHZCWfG2jEfEoNAEBbcBz9zPfBc3O/6dcxAAAAALSwax8+oVl8cpiKpKkBAGhtzU3JsbX1tTYDAAAAQDuYVj/4Q8vo4SKi1AAAtJZ0OvPk+Ft6PrErv5YBAAAAoLVGgBXHvKaq/0UJAECrcCSh+cyoXf3lDAAAAACt6LqVx/zRUamlBACgpTUl46fV1vVJMQAAAAAUiOtXDql3VCZTAgDQUlKp9APj6no9tTu/hwEAAACgbUaAOjEyixIAgL2Vz9tvyttdR+/u72MAAAAAaCPXrhhyvaOylBIAgD2mmsvFM0Nq6429u7+VAQAAAKANn7Zljhh8vqiuJQUAYE807Wj6Tu0tPT7Zk9/LAAAAANCGYjHjVHTxnyoqr1ADALA7mpsTU8Yt7PvMnv5+BgAAAIA2NmlJVS7gtwcblfepAQDYFclEasHYeT1v3ps/gwEAAACgHUyuPy5lRyKHqZid1AAAfJ1UOr3y7Ju7X7W3fw4DAAAAQDu5/t7Dd/jFf4SI2tQAAHyZTDr7VM3srme2xJ/FAAAAANCOpj448G1LfUdSAgDwJYf/x86c3fm7xhhlAAAAAPCAa1YOekUdp5oSAIB/SqfTvztzTufhLXX4FxExZAUAACgMM09vuEhEl1ACrWnAoQcRAShwiWTqV6Nv6n5RS/+5vAIAAACgQFy3cvAvRc2PKQEARXz4b05c3RqHfwYAAACAQhsBHhp8g7HkdkoAQHFRdbJNnyeHjJ7Xc15r/TsYAAAAAApMasWqy1T1MUoAQHHI551t8VSq17hbejS05r+HAQAAAKDAxCTm7Bd4Z6Q4uoEaAOBtiWRqyZ9CFQeOvannp6397+JNAAEAAArUgqGPhVKRTltUZT9qoKXwJoBAYVB1kommzMgxC7qvbqt/J68AAAAAKFBXrqrOpFI6UIz5jBoA4B2pVG5FOhHv3JaHfxFeAQAAAFDw5o38c7e0P/mWqISpgb3FKwCA9mPn8+8nEplR4xb03Nwe/34GAAAAABeYdfr6g1WsLTx/AwMA4D4qmk42Ja45e17PhcYYba+vgx8BAAAAcIFrVx77VzHmREoAgKuO/k4qmZr/1uefVIye3+vW9jz8i7AgAwAAuMrMkRtGi88sowT2FK8AANrm4J+Mp+cbyf2wtq5PqlC+KgYAAAAAt40Ap228QowsoAQYAIBCO/drLpFM1e2M688mLemZLLQvjwEAAADAhWaduXGmOnItJcAAABTAud9xsql0Zm5Ztvnn1bcckCnUr5MBAAAAwJ1PN83M0zfdK6KjaQEGAKCdvhPntTmZSsa6VfRYcFLM5Av96/VzyQAAANzIaPoIHRd6aWN3w5sDAkCbsm39PJVITnu1ssevYzMqHNc8cnDpAAAA3GvxxMbAjo/sF8WSAdTAruAVAMBeHPxz9oepVHrK6Hk9lrX3O/ozAAAAABSh2IjGkrBlbxWjvaiBbx4ADiYCsJvytv1eJpG6fPSCXg+LiLr1djAAAAAAeMCMsS9XmmTybREpowYYAICWkcvbf8tks5ePubn7ai/cHgYAAAAAj5h7xnP98rb1uhjD+zyBAQDYC9lcbnMqnbxk/Py+m7x0uxgAAAAAPGTGmZuOMrb9AiXAAADswcE/az+fziYvGzev90tevH0MAAAAAB4z84yNw8TRRykBBgBg12TS2VUZ27l8XF23N7x8OxkAAAAAPGj26RsucFR+TQkwAABfc/DPZB81OZl45rwufy+G28sAAAAA4FEzT9/wE1H5GSXAAAD8C00lM3c2aWbKhXV9thfTDWcAAAAA8LAZpzUsNuJMpAQYAAB1ksn0wowl10+Y2z1RjAV4h1gAAAAPyxz52CXhl6r7iDhDqQGgKI/96mSTqfQ8S/Oxs+v6pIq5Ba8AAAAA8LjlNep7I7fxOREZQg3wCgAUzcFfNJ1Mpm/YGX9v9qQlVTmKMAAAAAAUhdiJa8PhypItorovNRgAAC9z1GlKJFI/9R/X45baWmNThAEAAACg+EaAoRvKw2Hzhqh2ogYDAOC5g79tf5JIpidvrexxbyxmHIowAAAAABS12TUN3Z2cviWiIWowAABeYDv231OJ9NTR83ssM2KUIgwAAAAA+Ifpp2880FL9G88FGQAAN8vm7dczycQVYxf0eZwaDAAAAAD4CjPOWn+iyZu1lGAAANwml8//NZ6KT5wwv98fqcEAAAAAgF0wa9SGs9RIPSUYAAA3yGaym1LZ1GXj5/fdRA0GAAAAAOzuCHBawxRHnLmUKB6HMgDAZTKZ/LPJXGbShHk9/0oNBgAAAADshRmjNt4sRq+mBAMAUFAH/1R2VcZxLh9X1+0NajAAAAAAoEWomXHaxmUicjYtGACA9pZOZZYn09lLz13Y+zNqtCw/CQAAAIqd0cyROjb80sZuKnIiPQC0AyeVzCzNpVKTxy3qt4McrfTdngQAAAAQEVk8sTHw+Uf5Fx0jA6jhXbwCAAVFNZdIpOp2JvVnk5b0TBKEAQAAAABtZM53/xS1I6ltaqQbNRgAgNY79zvZeDJzc0W+W6z6FpOhCAMAAAAA2sH00zd2EtG3jEopNRgAgJZkq8aTzcmf9ujYY8FJMZOnCAMAAAAA2tmM09bvIyKvixgfNRgAgL3lqNOUaEpM29qp1y9jMeNQhAEAAAAABWT2GesH2o7ZTAkGAGBP2Tn7w2Q6fc2YeT3uMcYoRRgAAAAAUKBmjmoYocZ5mBIMAMDuyOXt91PJ1GXjFvR6WEQ4+DMAAAAAwA1mjNp4oRj9JSUYAIBvks3mtibjqavOua3P49RgAAAAAIA7R4AbxOgPKcEAAHyZdDa7OZNJXTJ+ft9N1GAAAAAAgMtNH7VhiTFyESUYAIB/ymRyG9LZ5JUc/BkAAAAA4CEqamaO3PCYWOZ71GAAQJEf/FPZVfFs6orzbum7jRruYZEAAAAAu8KI0UxTeoSI8MkAQBEf/Hfu/LjPWTd1qebw78bv4wAAAMBuiJ24NhzuEPmrGtmHGu7DKwCwBzSRzNwZ18yUC+v6bCcHAwAAAACKaQQ4bW1FWEreVNUKarjLAAYA7DonmcosteL+H9Qu6biTHAwAAAAAKFKzaxq621l9S0RD1GAAgHeoOtlUMj3PMvlYbV2fFEUYAAAAAACZPmrDIUZkCyUYAOB+jjqZRDJ9YzzZfeakJSZHEQYAAAAA4F/MOH3jf4ujqynBAAB3UlubE8lkbGvHHgtiMZOnCAMAAAAA8NUjwIiNY8TSeynBAAD3sG37k1Q8PXlr5x73xmLGoQgDAAAAALBrI8DI568RY82mBAMACvzg79h/TzWnp425pcc9xhilCAMAAAAAsNtmjny+To31A0owAKDwZHO5bal46vJzbuvzODUYAAAAAIC9pGb6yPX3G2PV0IIBAAVz8H+1uan54vNv77+OGsXNTwIAAAC0HKP7h5aP2Zbp21OMHE8PoB0P/pnMpnQufdn4+X03UQMivAIAAAAArWDxxMbA9o/yL4nIIdQoLLwCwPsymczzuZQ9cezCHnxEJxgAAAAA0PrmnPOnaL4p+YaI6UoNBgC0wcE/nVmVyKavOO+WvtuoAQYAAAAAtKm5Ixo756z82yJSQg0GALSOVCq9IpNsvnTC7ft/TA0wAAAAAKDd/GLExv5+y3lNxPiowQCAFuMkU5mldio1edyifjvIAQYAAAAAFIRZIzYc41iynhIMANjLA5xqrjmRmleW0tiIJT2TFAEDAAAAAArODSM2jPJZ8hAlGACw+1SdbCqZnJeqyP70/Fj/NEXAAAAAAICCduPIDRMtI4spwQCAXWOrxtPx1M+a0u/Pn7SkKkcRMAAAAADANaaPWn+jqPkfSrSPQw9jAHADR52mZDz1s60vv7ogtu6kPEXAAAAAAABXPgedMWr9b1TNeaRgAMC/su38R6l4ZurWzkvujcViDkXQkvwkAAAAQBvTzO/+8P3QyKHdVfR75ABE8nn7g2Rz81Xjb+u7QsQoRdAaeAUAAAAA2sXEoxsD/XvlN6nIEdRoO7wCoLDkcrmtyXjqqnNu6/M4NcAAAAAAAM+Knbg2HCqL/E2N9KMGA0AxyWazL6TTmcvG39J7AzXAAAAAAICiUHfaixUpzb4lqh2owQDg/YN/bkM6kbxy/G19N1EDDAAAAAAoOjee0dhD8vZbRjRIDQYAL8ok008ks/Erzl2431ZqgAEAAAAARW3miIYBjnFeoQQDgLcO/plVmXx24vhber9HDTAAAAAAAP9w4+kbTjG2PEEJBgCX01QifVc6l5t87sLen5EDDAAAAADAl5g+cuO5InoHJVrj2b+RQw89iA6tdepXdZLxxG+b0ukpk5bst5MiYAAAAAAAvmkEOG39NHHMLEq0LJ/PJwcfciAhWv7gn00kUvObU+/HJi2pSlIEDAAAAADA7owAozbcKiqXUaLl+P0BOejg/QnRQhzHySTiqRsCH+6YXVs/IEsRMAAAAAAAe0TNjJEN96toDS1aRjgclv0P6E+Ivb1n2tqcSCZjWzv2WBCLmTxF4BZ+EgAAAKAwGX0htHzMwEy/Xip6HD32XjAQIMJesPPOJ8lkYtprnXotjc2scCgC131XJQEAAAAKWaxmSzCYaf6ziPDD63upU+dK6dGjOyF2Uz6f/3sqnp489tae9xtjlCJgAAAAAABabQRYWxrKRrapSldq7LlevXpIZccKQuyiXNbeFk82/+Dchf1+LyIc/MEAAAAAALSFOaf/qWsun3xbRMLU2DP777+vhCPk+ybZXO7VZDw1acKiPk9TAwwAAAAAQDuYMezZfR2f/zWjYlFj91iWJQcdfKBYFum+SiadbUxlU5dMuLVvIzXAAAAAAAC0s5mjGo5zHPs5Suye0tKo7NO/HyG+7OCfyTyfyWQuHn9rnz9TAwwAAAAAQAGZftrG08R2VlJi13Xr3k26dOlEiC8e/FPpJ7J29vJxC/q8Rg0wAAAAAAAFasbIDRNVdTElds0BB+4noVCIECKSSqVXZFLNl064ff+PqQEGAAAAAMAFbhy5YbpRvZ4SXy8cDsv+B+xb7BmcVDJ9d3Pzp1df+OsB27lXgAEAAAAAcBU100c23CXqjKPFV+vWo5t06VycL/83qrmd8fgCJ+T/6YS53RPcG1DM/CQAAACAm4932YdjE4IjvtdFRL9Ljy8pZCzpWFlRdLdbVbOJZGp+Zmf6J+ff0T/NPQHgFQAAAADwgIlHNwb26ZlvFNHDqfGvOnaskJ69ehbN7bVV44lE4heJdM+6SUtMjnsAwAAAAAAAj4mdtzYc/DTyNzHKZ93988m+MbL/AfsWxZv/ObbTlEjGfxz4sPfC2npjc/UBBgAAAAB42Ixhz1Y6VuAtI1pODZHKykrp1buHp2+jbTsfJZOJ617r1GtpLGYcrjrAAAAAAIAiMXNEY19Hs9vEmKJ+vytjLDngwP0kGAx48vbl8/kPmhPNl5+7sN9DIka55wMMAAAAAChCN56+6VCTz/+5mBt0695VunTp7LnblclmX0+lEldNWLjPY9zTAQYAAAAAQG4ctfFU4ziPF+NtD4VCsv8B+4ox3nm6n83lXmiON192/qL+G7h3AwwAAAAAwL+YPnLjuaLOHcX1DN/IfvvuI5GSiCduTjqTbUin41dOWNh/I/dogAEAAAAA+EozRqy/VkVmFsvt7dajm3Tp3Mn9B/9U+olEInnV+Uv6/417McAAAAAAAOzqCLDQEbnU67ezvEOZ9O3bx9W3IZVKPdbc3Dzpol8d8B73XIABAAAAANhNaqaP3LhcVc/y6i0Mh8Oy7379xbJc+RRfk6nUPanPmydf8NsDPuH+CrQOPwkAAADgfUZfDC0ffWS6zx9F5Biv3bpgKCj77NPXhYd/deLxxJ3xdPrqSUv228n9FGjl74QkAAAAQLFYMPS1UNz/6UsqcpCXDv/79t9H/AH3/N2eqmYTqeSsj4w9Y3JdnxT3TIABAAAAAGhxiyc2Bj77e3atijne7bclHA7LPvv0dc3h33GcTDyeuDH00c5ZtfUDstwbAQYAAAAAoFUtr1nu25bp95CjznC33oZoNCp9+/UWn89X+Ad/22lONCd+1qtrr/knxUyeeyDAAAAAAAC0mVhMrfItL92VSqfHuu1r79ixQnr07CHGFPbTeTtvf5pIJads69Tr7ljMONzrAAYAAAAAoN2eD982fsvVO5ubb3IcLfgv1uf3Sc+ePaRDh/KC/jrz+fyHiUR82jm39r3bGKPczQAGAAAAAKAg/Or7rx8fjyeeTCSTkUL9GsvLy6Vnr+7i9xfuz/vnc/a2RFPiygmLe68S4eAPMAAAAAAABeg3l77eR/O+pz/79NP+uVzh/Jh6KBSS7t27Sll5WcG2y2ayW1LNyYsnLOn3R+5JAAMAAAAAUPBiJ671H3D4gYvSqcyFn372meTbcQgIBgPSpUtnqaisKNif9c+ks43pROqSCYv7NnLvARgAAAAAANf57UXbBpVVdHgy3pzosH37dkml0m327y6Jlkinjh2lQ0VZwT5dT6XSz6cS8YvPX7Lfn7m3AAwAAAAAgKstntgYKI30nlsajVyZTqXl851N0tTUJNlMy398fTgclrLyUqmsqJBgKFiwTZKp9OOpdPqyCxb1e4N7CMAAAAAAAHjK0onb+obLO6wMBQMDRUQymYwkEilJJhKSTKUkl82J6u68352RcDgkkUhESqJhKS0tlUAgUNANEonkinzGXDrh9u4fc48AGAAAAAAAT7vzkre/U1pWepff7+/+xX+uqpLNZiWbzYmdz0s+b8sX5wDLMuKzLPH7/RIIBiUYDBTsz/T/G6e5OfHLXHPmuvPv6P859wCAAQAAAAAoGipq7r78gxHRkvAin9/f05s3UnPN8eSCnfaO2GW3DYhz1QEGAAAAAKCYpwBzx6XvnhKNhBcEg6FveeEWOXnn42Q6+YvAh58vqa0fkOUaAwwAAAAAAL7gnkve3tcEAz8tiZScY1zy2v4vSmcyGzKpzHUTFvV+RsQoVxRgAAAAAADwNRZPbAyETdfqcEnounA4fEwhf625fP61dDJ1Wzbpu+eC3/b4hKsHMAAAAAAA2ANLz/kw6kQzw8Lh4AXhcPg7xli+9v6aMtnsS9l09le2NN137sKDP+MqAQwAAAAAAFqQqppfXfT2QaGgVe0PBIeFwoFj/ZY/3Mr/UiebzTVmsrmVdjr9WGRn/y219cbmagAMAAAAAADa0MJLt5RGs6XfMgHrKL/fDPRZ/gP9Af/+Ab+/pxgT2MUzvti283Eu77ypdu6VvO1szuVyLzh28rULf33IDn6eHwADAAAAAFDAVNXccf5bIccqDahJB0RE1OQCjpW2oolAItg1nJP31mdr62v5G30AAAAAAAAAAAAAAACg6PxfM8eKN729GKAAAAAldEVYdGRhdGU6Y3JlYXRlADIwMjQtMDMtMDJUMTY6NTQ6NTkrMDA6MDDs5S8cAAAAJXRFWHRkYXRlOm1vZGlmeQAyMDI0LTAzLTAyVDE2OjU0OjU5KzAwOjAwnbiXoAAAAABJRU5ErkJggg==;fontColor=#0069D1;fontStyle=1;fontSize=14;" vertex="1" parent="1">
          <mxGeometry x="684" y="330" width="60" height="60" as="geometry" />
        </mxCell>
      </root>
    </mxGraphModel>
  </diagram>
</mxfile>
